<svg viewBox="0 0 16 16" xmlns="http://www.w3.org/2000/svg">
<path fill-rule="evenodd" clip-rule="evenodd" d="M7.2 4.8C7.2 4.3584 7.5584 4 8 4C8.4416 4 8.8 4.3584 8.8 4.8V8.8C8.8 9.2416 8.4416 9.6 8 9.6C7.5584 9.6 7.2 9.2416 7.2 8.8V4.8ZM7.2 11.2C7.2 10.7584 7.5584 10.4 8 10.4C8.4416 10.4 8.8 10.7584 8.8 11.2C8.8 11.6416 8.4416 12 8 12C7.5584 12 7.2 11.6416 7.2 11.2ZM8.00001 14.4C4.47121 14.4 1.60001 11.5288 1.60001 8.00001C1.60001 4.47121 4.47121 1.60001 8.00001 1.60001C11.5288 1.60001 14.4 4.47121 14.4 8.00001C14.4 11.5288 11.5288 14.4 8.00001 14.4ZM8 0C3.5816 0 0 3.5816 0 8C0 12.4184 3.5816 16 8 16C12.4184 16 16 12.4184 16 8C16 3.5816 12.4184 0 8 0Z" />
</svg>
