<svg viewBox="0 0 11 6" xmlns="http://www.w3.org/2000/svg">
    <path fill-rule="evenodd" clip-rule="evenodd"
      d="M8.07543 0.473787C7.8139 0.270438 7.43575 0.288924 7.19543 0.529247L7.13997 0.592051C6.93662 0.853579 6.9551 1.23173 7.19543 1.47206L8.05706 2.33398H1.00016L0.922415 2.33847C0.590856 2.37698 0.333496 2.65876 0.333496 3.00065C0.333496 3.36884 0.631973 3.66732 1.00016 3.66732H8.05706L7.19543 4.52925L7.13997 4.59205C6.93662 4.85358 6.9551 5.23173 7.19543 5.47206C7.45577 5.73241 7.87788 5.73241 8.13823 5.47206L10.1382 3.47206L10.1937 3.40925C10.397 3.14772 10.3786 2.76957 10.1382 2.52925L8.13823 0.529247L8.07543 0.473787Z"
    />
</svg>
