<svg viewBox="0 0 10 10" xmlns="http://www.w3.org/2000/svg">
  <path
    d="M9.43181 5.85C9.20003 5.585 8.78754 5.54875 8.50992 5.77L5.65519 8.04062V0.625C5.65519 0.28 5.36186 0 5.00043 0C4.63901 0 4.34568 0.28 4.34568 0.625V8.04062L1.49094 5.77C1.21267 5.54875 0.800178 5.585 0.569049 5.85C0.337266 6.115 0.374587 6.50937 0.652858 6.73L4.58139 9.855C4.61216 9.88 4.64883 9.89188 4.68288 9.91063C4.70972 9.92562 4.73329 9.94312 4.76276 9.95438C4.83936 9.98312 4.91924 10 5.00043 10C5.08162 10 5.1615 9.98312 5.23811 9.95438C5.26757 9.94312 5.29114 9.92562 5.31799 9.91063C5.35204 9.89188 5.3887 9.88 5.41948 9.855L9.34801 6.73C9.62562 6.50937 9.6636 6.115 9.43181 5.85Z"
  />
</svg>
