<svg viewBox="0 0 10 10" xmlns="http://www.w3.org/2000/svg">
  <path
    d="M0.568836 4.15C0.800619 4.415 1.21311 4.45125 1.49073 4.23L4.34546 1.95938V9.375C4.34546 9.72 4.63879 10 5.00022 10C5.36164 10 5.65497 9.72 5.65497 9.375V1.95938L8.50971 4.23C8.78798 4.45125 9.20047 4.415 9.4316 4.15C9.66338 3.885 9.62606 3.49062 9.34779 3.27L5.41926 0.145C5.38849 0.12 5.35182 0.108125 5.31777 0.089375C5.29093 0.074375 5.26736 0.056875 5.23789 0.045625C5.16129 0.016875 5.08141 0 5.00022 0C4.91903 0 4.83915 0.016875 4.76254 0.045625C4.73308 0.056875 4.70951 0.074375 4.68266 0.089375C4.64861 0.108125 4.61195 0.12 4.58118 0.145L0.652645 3.27C0.375028 3.49062 0.337053 3.885 0.568836 4.15Z"
  />
</svg>
