<svg viewBox="0 0 11 6" xmlns="http://www.w3.org/2000/svg">
    <path fill-rule="evenodd" clip-rule="evenodd"
          d="M3.80457 0.529247C3.54423 0.268897 3.12212 0.268897 2.86177 0.529247L0.861766 2.52925L0.806307 2.59205C0.602957 2.85358 0.621443 3.23173 0.861766 3.47206L2.86177 5.47206L2.92457 5.52751C3.1861 5.73087 3.56425 5.71238 3.80457 5.47206L3.86003 5.40925C4.06338 5.14772 4.0449 4.76957 3.80457 4.52925L2.94294 3.66732H9.99984L10.0776 3.66283C10.4091 3.62432 10.6665 3.34254 10.6665 3.00065C10.6665 2.63246 10.368 2.33398 9.99984 2.33398H2.94294L3.80457 1.47206L3.86003 1.40925C4.06338 1.14772 4.0449 0.769569 3.80457 0.529247Z"
    />
</svg>
