<svg viewBox="0 0 20 20" xmlns="http://www.w3.org/2000/svg">
<path d="M0 3.57143C0 2.97969 0.479695 2.5 1.07143 2.5H18.9286C19.5203 2.5 20 2.97969 20 3.57143C20 4.16316 19.5203 4.64286 18.9286 4.64286H1.07143C0.479694 4.64286 0 4.16316 0 3.57143Z" />
<path d="M0 10C0 9.40827 0.479695 8.92857 1.07143 8.92857H18.9286C19.5203 8.92857 20 9.40827 20 10C20 10.5917 19.5203 11.0714 18.9286 11.0714H1.07143C0.479694 11.0714 0 10.5917 0 10Z" />
<path d="M0 16.4286C0 15.8368 0.479695 15.3571 1.07143 15.3571H18.9286C19.5203 15.3571 20 15.8368 20 16.4286C20 17.0203 19.5203 17.5 18.9286 17.5H1.07143C0.479694 17.5 0 17.0203 0 16.4286Z" />
</svg>
