<svg viewBox="0 0 46 51" xmlns="http://www.w3.org/2000/svg">
<path d="M1.35473 44.424L1.40208 44.4466L1.45309 44.4589L22.4062 49.4976C22.5962 49.5795 22.7982 49.6195 22.999 49.6195C23.1999 49.6195 23.4019 49.5795 23.5919 49.4976L44.5459 44.4589L44.5969 44.4466L44.6443 44.424C45.1659 44.1752 45.499 43.6488 45.499 43.0697V9.00948C45.499 8.49437 45.2346 8.01617 44.7992 7.74088C44.3681 7.46761 43.8323 7.43635 43.3743 7.64468L22.999 15.4759L2.6253 7.64589C2.16595 7.43581 1.62794 7.46913 1.19851 7.74105L1.19813 7.74129C0.764202 8.01661 0.5 8.49455 0.5 9.00948V43.0697C0.5 43.6488 0.833105 44.1752 1.35473 44.424ZM3.5 42.0392L3.5 11.3181L21.499 18.1508V46.1556L3.5 42.0392ZM42.499 42.0392L24.499 46.1556V18.1512L42.499 11.3181V42.0392ZM22.7954 11.1618L22.9989 11.2525L23.2024 11.1619L40.7303 3.35952L40.7304 3.35968L40.7422 3.35403C41.4905 2.99715 41.807 2.1019 41.4515 1.35487L41.4513 1.35449C41.0944 0.606223 40.2049 0.295261 39.4602 0.640505L22.9992 7.94304L6.56723 0.641254C5.82323 0.295659 4.93257 0.606846 4.5757 1.35506L4.57552 1.35545C4.22 2.10248 4.5365 2.99773 5.28475 3.35461L5.28468 3.35476L5.2964 3.35998L22.7954 11.1618Z" stroke="#7B819B"/>
</svg>
