<svg viewBox="0 0 16 14" xmlns="http://www.w3.org/2000/svg">
<path fill-rule="evenodd" clip-rule="evenodd" d="M13.8333 10.6686L8.83333 11.7919V3.33106L13.8333 2.20856V10.6686ZM2.16667 2.20856L7.16667 3.33106V11.7919L2.16667 10.6686V2.20856ZM15.1875 0.515229C14.9892 0.357729 14.7308 0.297729 14.4833 0.353562L8 1.81023L1.51667 0.353562C1.26833 0.296895 1.01083 0.357729 0.8125 0.515229C0.615 0.674395 0.5 0.913562 0.5 1.1669V11.3352C0.5 11.7252 0.77 12.0627 1.15 12.1477L7.81667 13.6461C7.87833 13.6602 7.93917 13.6669 8 13.6669C8.06083 13.6669 8.12167 13.6602 8.18333 13.6461L14.85 12.1477C15.23 12.0627 15.5 11.7252 15.5 11.3352V1.1669C15.5 0.913562 15.385 0.674395 15.1875 0.515229Z" />
</svg>
