<svg viewBox="0 0 20 20" xmlns="http://www.w3.org/2000/svg">
<path d="M19.4141 1.25H17.6172V0.585938C17.6172 0.262344 17.3548 0 17.0312 0C16.7077 0 16.4453 0.262344 16.4453 0.585938V1.25H14.1016V0.585938C14.1016 0.262344 13.8392 0 13.5156 0C13.192 0 12.9297 0.262344 12.9297 0.585938V1.25H10.5859V0.585938C10.5859 0.262344 10.3236 0 10 0C9.67641 0 9.41406 0.262344 9.41406 0.585938V1.25H7.07031V0.585938C7.07031 0.262344 6.80797 0 6.48438 0C6.16078 0 5.89844 0.262344 5.89844 0.585938V1.25H3.55469V0.585938C3.55469 0.262344 3.29234 0 2.96875 0C2.64516 0 2.38281 0.262344 2.38281 0.585938V1.25H0.585938C0.262344 1.25 0 1.51234 0 1.83594V19.4141C0 19.7377 0.262344 20 0.585938 20H19.4141C19.7377 20 20 19.7377 20 19.4141V1.83594C20 1.51234 19.7377 1.25 19.4141 1.25ZM2.38281 2.42188V3.00781C2.38281 3.33141 2.64516 3.59375 2.96875 3.59375C3.29234 3.59375 3.55469 3.33141 3.55469 3.00781V2.42188H5.89844V3.00781C5.89844 3.33141 6.16078 3.59375 6.48438 3.59375C6.80797 3.59375 7.07031 3.33141 7.07031 3.00781V2.42188H9.41406V3.00781C9.41406 3.33141 9.67641 3.59375 10 3.59375C10.3236 3.59375 10.5859 3.33141 10.5859 3.00781V2.42188H12.9297V3.00781C12.9297 3.33141 13.192 3.59375 13.5156 3.59375C13.8392 3.59375 14.1016 3.33141 14.1016 3.00781V2.42188H16.4453V3.00781C16.4453 3.33141 16.7077 3.59375 17.0312 3.59375C17.3548 3.59375 17.6172 3.33141 17.6172 3.00781V2.42188H18.8281V4.76562H1.17188V2.42188H2.38281ZM1.17188 18.8281V5.9375H18.8281V18.8281H1.17188Z" />
<path d="M6.48438 8.28125H4.14062C3.81703 8.28125 3.55469 8.54359 3.55469 8.86719V11.2109C3.55469 11.5345 3.81703 11.7969 4.14062 11.7969H6.48438C6.80797 11.7969 7.07031 11.5345 7.07031 11.2109V8.86719C7.07031 8.54359 6.80797 8.28125 6.48438 8.28125ZM5.89844 10.625H4.72656V9.45312H5.89844V10.625Z" />
<path d="M15.8594 8.28125H13.5156C13.192 8.28125 12.9297 8.54359 12.9297 8.86719V11.2109C12.9297 11.5345 13.192 11.7969 13.5156 11.7969H15.8594C16.183 11.7969 16.4453 11.5345 16.4453 11.2109V8.86719C16.4453 8.54359 16.183 8.28125 15.8594 8.28125ZM15.2734 10.625H14.1016V9.45312H15.2734V10.625Z" />
<path d="M11.1719 12.9297H8.82812C8.50453 12.9297 8.24219 13.192 8.24219 13.5156V15.8594C8.24219 16.183 8.50453 16.4453 8.82812 16.4453H11.1719C11.4955 16.4453 11.7578 16.183 11.7578 15.8594V13.5156C11.7578 13.192 11.4955 12.9297 11.1719 12.9297ZM10.5859 15.2734H9.41406V14.1016H10.5859V15.2734Z" />
<path d="M11.1719 8.28125H8.82812C8.50453 8.28125 8.24219 8.54359 8.24219 8.86719V11.2109C8.24219 11.5345 8.50453 11.7969 8.82812 11.7969H11.1719C11.4955 11.7969 11.7578 11.5345 11.7578 11.2109V8.86719C11.7578 8.54359 11.4955 8.28125 11.1719 8.28125ZM10.5859 10.625H9.41406V9.45312H10.5859V10.625Z" />
<path d="M15.8594 12.9297H13.5156C13.192 12.9297 12.9297 13.192 12.9297 13.5156V15.8594C12.9297 16.183 13.192 16.4453 13.5156 16.4453H15.8594C16.183 16.4453 16.4453 16.183 16.4453 15.8594V13.5156C16.4453 13.192 16.183 12.9297 15.8594 12.9297ZM15.2734 15.2734H14.1016V14.1016H15.2734V15.2734Z" />
<path d="M6.85398 13.4829C6.60289 13.2787 6.23387 13.3168 6.02973 13.5679L4.8384 15.0332L4.51215 14.7657C4.26191 14.5604 3.89273 14.597 3.68754 14.8472C3.48234 15.0974 3.51887 15.4666 3.7691 15.6718L4.55035 16.3124C4.80184 16.5187 5.17231 16.4802 5.37652 16.229L6.93902 14.3071C7.14316 14.056 7.10508 13.687 6.85398 13.4829Z" />
</svg>
