<svg width="24" height="25" viewBox="0 0 24 25" fill="none" xmlns="http://www.w3.org/2000/svg">
    <path fill-rule="evenodd" clip-rule="evenodd"
          d="M16.2171 2.75195H7.78286C4.32276 2.75195 2 5.24361 2 8.7786V16.7253C2 20.2633 4.31691 22.752 7.78286 22.752H16.2171C19.6831 22.752 22 20.2633 22 16.7253V8.7786C22 5.24055 19.6831 2.75195 16.2171 2.75195ZM7.78286 4.75195H16.2171C18.5453 4.75195 20 6.31444 20 8.7786V16.7253C20 19.1894 18.5453 20.752 16.2171 20.752H7.78286C5.45469 20.752 4 19.1894 4 16.7253V8.7786C4 6.31803 5.45992 4.75195 7.78286 4.75195Z"
          fill="#17335D"/>
    <g opacity="0.5">
        <path fill-rule="evenodd" clip-rule="evenodd"
              d="M11 8.75195C11 8.19967 11.4477 7.75195 12 7.75195C12.5523 7.75195 13 8.19967 13 8.75195V16.752C13 17.3042 12.5523 17.752 12 17.752C11.4477 17.752 11 17.3042 11 16.752V8.75195ZM7 14.752C7 14.1997 7.44772 13.752 8 13.752C8.55228 13.752 9 14.1997 9 14.752V16.752C9 17.3042 8.55228 17.752 8 17.752C7.44772 17.752 7 17.3042 7 16.752V14.752ZM16 11.752C15.4477 11.752 15 12.1997 15 12.752V16.752C15 17.3042 15.4477 17.752 16 17.752C16.5523 17.752 17 17.3042 17 16.752V12.752C17 12.1997 16.5523 11.752 16 11.752Z"
              fill="#17335D"/>
    </g>
</svg>
