<svg xmlns="http://www.w3.org/2000/svg" viewBox="0 0 10 10">
	<path d="M3.7,8.6c-0.2,0-0.3-0.1-0.4-0.2L0.4,5.3c-0.2-0.2-0.2-0.6,0-0.8c0.2-0.2,0.6-0.2,0.8,0l2.4,2.6l5-5.5
		c0.2-0.2,0.6-0.3,0.8,0c0.2,0.2,0.3,0.6,0,0.8L4.2,8.4C4.1,8.5,3.9,8.6,3.7,8.6L3.7,8.6z"/>
	<path d="M3.7,8.8L3.7,8.8c-0.2,0-0.5-0.1-0.6-0.3L0.2,5.5C0.1,5.3,0,5.1,0,4.9s0.1-0.4,0.3-0.6C0.4,4.1,0.7,4,0.9,4
		c0.2,0,0.4,0.1,0.6,0.3l2.3,2.4l4.8-5.3c0.3-0.3,0.9-0.4,1.2-0.1C9.9,1.6,10,1.8,10,2c0,0.2-0.1,0.4-0.2,0.6L4.4,8.5
		C4.2,8.7,4,8.8,3.7,8.8L3.7,8.8z M0.8,4.6c-0.1,0-0.2,0-0.2,0.1C0.5,4.7,0.5,4.8,0.5,4.9c0,0.1,0,0.2,0.1,0.2l2.9,3.1
		c0.1,0.1,0.2,0.1,0.2,0.1h0c0.1,0,0.2,0,0.2-0.1l5.4-5.9C9.5,2.2,9.5,2.1,9.5,2c0-0.1,0-0.2-0.1-0.2C9.2,1.7,9,1.7,8.9,1.8L3.7,7.5
		L1.1,4.7C1,4.6,0.9,4.6,0.8,4.6C0.9,4.6,0.9,4.6,0.8,4.6z"/>
</svg>
