<svg viewBox="0 0 20 20" xmlns="http://www.w3.org/2000/svg">
<path fill-rule="evenodd" clip-rule="evenodd" d="M15.8333 10.6942C15.8333 10.2342 16.2067 9.86083 16.6667 9.86083C17.1267 9.86083 17.5 10.2342 17.5 10.6942V15.3325C17.5 16.5275 16.5275 17.5 15.3333 17.5H4.66667C3.4725 17.5 2.5 16.5275 2.5 15.3325V4.66667C2.5 3.47167 3.4725 2.5 4.66667 2.5H12.6392C13.0992 2.5 13.4725 2.8725 13.4725 3.33333C13.4725 3.79333 13.0992 4.16667 12.6392 4.16667H4.66667C4.39083 4.16667 4.16667 4.39083 4.16667 4.66667V15.3325C4.16667 15.6083 4.39083 15.8333 4.66667 15.8333H15.3333C15.6092 15.8333 15.8333 15.6083 15.8333 15.3325V10.6942ZM7.758 9.12167C8.09133 8.80333 8.618 8.81667 8.93633 9.14917L10.1905 10.4642L15.2347 5.25333C15.5538 4.92333 16.0813 4.91333 16.413 5.23417C16.7438 5.55417 16.7522 6.08167 16.4322 6.4125L10.7847 12.2458C10.628 12.4083 10.4122 12.5 10.1863 12.5H10.183C9.95633 12.4992 9.73967 12.4058 9.583 12.2417L7.7305 10.3C7.41217 9.96667 7.4255 9.43917 7.758 9.12167Z"/>
</svg>
