<svg viewBox="0 0 18 18" xmlns="http://www.w3.org/2000/svg">
<path d="M6.54893 5.26709L9.74998 9.00003L6.54893 12.7328C6.28343 13.0281 6.32693 13.4676 6.64494 13.7134C6.78519 13.8221 6.95544 13.875 7.12494 13.875C7.33944 13.875 7.55245 13.7893 7.70095 13.6243L11.451 9.44569C11.4802 9.41295 11.4952 9.37465 11.517 9.33843C11.535 9.30918 11.5567 9.28411 11.5702 9.25208C11.604 9.17199 11.6242 9.08772 11.6242 9.00275L11.625 8.99997L11.6242 8.99718C11.6242 8.91222 11.604 8.82795 11.5702 8.74786C11.5567 8.71582 11.535 8.69075 11.517 8.6615C11.4952 8.62529 11.4802 8.58698 11.451 8.55425L7.70095 4.37565C7.4362 4.08036 6.96369 4.03997 6.64494 4.28651C6.32693 4.53235 6.28343 4.9718 6.54893 5.26709Z"/>
</svg>
