<svg viewBox="0 0 18 18" xmlns="http://www.w3.org/2000/svg">
<path d="M11.4511 5.26709L8.25002 9.00003L11.4511 12.7328C11.7166 13.0281 11.6731 13.4676 11.3551 13.7134C11.2148 13.8221 11.0446 13.875 10.8751 13.875C10.6606 13.875 10.4476 13.7893 10.2991 13.6243L6.549 9.44569C6.51975 9.41295 6.50475 9.37465 6.483 9.33843C6.465 9.30918 6.44325 9.28411 6.42975 9.25208C6.396 9.17199 6.37575 9.08772 6.37575 9.00275L6.375 8.99997L6.37575 8.99718C6.37575 8.91222 6.396 8.82795 6.42975 8.74786C6.44325 8.71582 6.465 8.69075 6.483 8.6615C6.50475 8.62529 6.51975 8.58698 6.549 8.55425L10.2991 4.37565C10.5638 4.08036 11.0363 4.03997 11.3551 4.28651C11.6731 4.53235 11.7166 4.9718 11.4511 5.26709Z"/>
</svg>
