<svg viewBox="0 0 20 20" xmlns="http://www.w3.org/2000/svg">
<path d="M2.92973 10.6249H11.1328C11.4565 10.6249 11.7188 10.3626 11.7188 10.0389C11.7188 9.71543 11.4565 9.45298 11.1328 9.45298H2.92973C2.60609 9.45298 2.34379 9.71543 2.34379 10.0389C2.34379 10.3626 2.60609 10.6249 2.92973 10.6249Z" />
<path d="M2.92973 12.9686H8.78904C9.11269 12.9686 9.37499 12.7063 9.37499 12.3827C9.37499 12.059 9.11269 11.7967 8.78904 11.7967H2.92973C2.60609 11.7967 2.34379 12.059 2.34379 12.3827C2.34379 12.7063 2.60609 12.9686 2.92973 12.9686Z" />
<path d="M19.4142 0H6.52338C6.19989 0 5.93759 0.262299 5.93759 0.585938V5.9375H0.585946C0.262303 5.9375 0 6.1998 0 6.52329V19.4139C0 19.9367 0.633707 20.1947 1.00023 19.8282L4.34424 16.4842H13.4766C13.8003 16.4842 14.0626 16.2218 14.0626 15.8983V11.2702H15.6558H18.9998C18.9998 11.2702 20 11.2702 20 10.7453V0.585938C20 0.262299 19.7377 0 19.4142 0ZM12.8907 15.3124H4.10163C3.94614 15.3124 3.79721 15.3742 3.68734 15.484L1.17189 17.9993V7.10923H12.8907V15.3124ZM18.8283 9.94006H16.3128H15.8985H14.0626V6.52329C14.0626 6.1998 13.8003 5.9375 13.4766 5.9375H7.10948V1.17188H18.8283V9.94006Z" />
<path d="M8.86717 4.6875H17.0704C17.3939 4.6875 17.6564 4.42505 17.6564 4.10156C17.6564 3.77793 17.3939 3.51563 17.0704 3.51563H8.86717C8.54368 3.51563 8.28122 3.77793 8.28122 4.10156C8.28122 4.42505 8.54368 4.6875 8.86717 4.6875Z" />
<path d="M17.0314 5.89844H15.8595C15.5358 5.89844 15.2735 6.16074 15.2735 6.48438C15.2735 6.80786 15.5358 7.07016 15.8595 7.07016H17.0314C17.3549 7.07016 17.6173 6.80786 17.6173 6.48438C17.6173 6.16074 17.3549 5.89844 17.0314 5.89844Z" />
</svg>
