<svg viewBox="0 0 16 16" xmlns="http://www.w3.org/2000/svg">
<path fill-rule="evenodd" clip-rule="evenodd" d="M5.5 8.83333V8C5.5 6.62167 6.62167 5.5 8 5.5H8.83333V2.7225C8.83333 2.41583 8.58417 2.16667 8.2775 2.16667H2.7225C2.41583 2.16667 2.16667 2.41583 2.16667 2.7225V8.2775C2.16667 8.58417 2.41583 8.83333 2.7225 8.83333H5.5ZM5.5 10.5H2.7225C1.49667 10.5 0.5 9.50333 0.5 8.2775V2.7225C0.5 1.49667 1.49667 0.5 2.7225 0.5H8.2775C9.50333 0.5 10.5 1.49667 10.5 2.7225V5.5H13C14.3783 5.5 15.5 6.62167 15.5 8V13C15.5 14.3783 14.3783 15.5 13 15.5H8C6.62167 15.5 5.5 14.3783 5.5 13V10.5ZM7.16667 8C7.16667 7.54083 7.54083 7.16667 8 7.16667H13C13.46 7.16667 13.8333 7.54083 13.8333 8V13C13.8333 13.4592 13.46 13.8333 13 13.8333H8C7.54083 13.8333 7.16667 13.4592 7.16667 13V8Z"/>
</svg>
