<svg viewBox="0 0 16 18" xmlns="http://www.w3.org/2000/svg">
  <path d="M13.8333 8.16667H2.16667V4.83334C2.16667 4.37417 2.54083 4.00001 3 4.00001H3.83333V4.83334C3.83333 5.29167 4.20833 5.66667 4.66667 5.66667C5.125 5.66667 5.5 5.29167 5.5 4.83334V4.00001H10.5V4.83334C10.5 5.29167 10.875 5.66667 11.3333 5.66667C11.7917 5.66667 12.1667 5.29167 12.1667 4.83334V4.00001H13C13.4592 4.00001 13.8333 4.37417 13.8333 4.83334V8.16667ZM13 2.33334H12.1667V1.50001C12.1667 1.04167 11.7917 0.666672 11.3333 0.666672C10.875 0.666672 10.5 1.04167 10.5 1.50001V2.33334H5.5V1.50001C5.5 1.04167 5.125 0.666672 4.66667 0.666672C4.20833 0.666672 3.83333 1.04167 3.83333 1.50001V2.33334H3C1.62167 2.33334 0.5 3.45501 0.5 4.83334V14.8333C0.5 16.2117 1.62167 17.3333 3 17.3333H13C14.3783 17.3333 15.5 16.2117 15.5 14.8333V4.83334C15.5 3.45501 14.3783 2.33334 13 2.33334Z"
  />
</svg>
