<svg viewBox="0 0 12 12" xmlns="http://www.w3.org/2000/svg">
<path d="M1.22727 0.3125C0.964772 0.3125 0.75 0.525781 0.75 0.786458V11.2135C0.75 11.4742 0.964772 11.6875 1.22727 11.6875C1.48977 11.6875 1.70454 11.4742 1.70454 11.2135V6.45026C2.29636 6.08057 3.6184 5.49286 5.53702 6.07109C8.62019 7.00005 11.0877 3.38849 11.1879 3.23682C11.2738 3.11359 11.269 2.95245 11.1831 2.82922C11.0972 2.71073 10.9397 2.65385 10.7965 2.69651C10.7727 2.70125 8.30996 3.34583 6.08588 1.80073C4.52521 0.715365 2.67817 0.710625 1.70454 0.810156V0.786458C1.70454 0.525781 1.48977 0.3125 1.22727 0.3125Z"/>
</svg>
