<svg viewBox="0 0 10 10" xmlns="http://www.w3.org/2000/svg">
<path d="M6.06104 4.81865H6.76464C6.76464 3.45683 7.87679 2.33334 9.24995 2.33334V1.62973C7.49094 1.64108 6.06104 3.05964 6.06104 4.81865Z" />
<path d="M9.24997 3.04825C8.45558 3.04825 7.78602 3.57028 7.55905 4.28523C7.50231 4.45546 7.47961 4.62569 7.47961 4.80726H8.18322C8.18322 4.59164 8.25131 4.38737 8.36479 4.21714C8.55772 3.93343 8.87548 3.75185 9.24997 3.75185V3.04825Z" />
<path d="M4.65387 4.81842C4.65387 3.88784 4.31342 3.02536 3.75734 2.3558C3.71195 2.29906 3.66656 2.24232 3.60981 2.19692C3.57577 2.15153 3.54172 2.11748 3.49633 2.07209C3.45093 2.0267 3.40554 1.9813 3.36015 1.94726C3.24666 1.84512 3.13318 1.75433 3.01969 1.66355C3.00834 1.6522 2.997 1.6522 2.98565 1.64085C2.90621 1.58411 2.82677 1.53871 2.74733 1.48197C2.72463 1.47062 2.71328 1.45927 2.69059 1.44792C2.61115 1.40253 2.53171 1.35714 2.44092 1.32309C2.41822 1.31174 2.40688 1.30039 2.38418 1.28905C2.29339 1.255 2.21395 1.20961 2.12316 1.17556C2.10047 1.16421 2.08912 1.16421 2.06642 1.15286C1.98698 1.13017 1.88485 1.09612 1.79406 1.07342C1.78271 1.07342 1.77136 1.06208 1.74866 1.06208C1.65788 1.02803 1.55574 1.00533 1.4536 0.993986V7.26969L3.48498 8.24565L5.00567 8.9833L9.25 6.92923V7.71228H9.21595L9.2273 7.73497L4.99433 9.7777L3.3034 8.96061L0.772697 7.72362V7.71228H0.75V0.22229C0.761348 0.22229 0.761348 0.22229 0.772697 0.22229C0.89753 0.22229 1.02236 0.233639 1.13585 0.233639C1.19259 0.233639 1.23798 0.244987 1.29473 0.256335C1.37417 0.267684 1.4536 0.279032 1.5217 0.290381C1.57844 0.301729 1.63518 0.313078 1.69192 0.324426C1.77136 0.335775 1.83945 0.358472 1.90754 0.36982C1.96429 0.381169 2.02103 0.403865 2.07777 0.415214C2.14586 0.437911 2.21395 0.460608 2.28204 0.483305C2.33879 0.506002 2.38418 0.51735 2.44092 0.540047C2.55441 0.585441 2.65654 0.630835 2.75868 0.676229C2.81542 0.698926 2.86081 0.732971 2.91756 0.755668C2.9743 0.789713 3.03104 0.823759 3.08778 0.846456C3.13318 0.891849 3.18992 0.925895 3.24666 0.95994C3.29206 0.993986 3.3488 1.02803 3.39419 1.06208C3.45093 1.09612 3.49633 1.14152 3.55307 1.17556C3.59846 1.20961 3.64386 1.24365 3.68925 1.28905C3.7233 1.32309 3.76869 1.34579 3.80274 1.37983C4.31342 1.83377 4.73331 2.41254 5.00567 3.05941H5.01702V3.07075C4.7787 3.60413 4.65387 4.19425 4.65387 4.81842Z" fill="#667379"/>
<path d="M9.24995 0.22229C8.62579 0.22229 8.03567 0.347123 7.50229 0.574092H7.49094C7.45689 0.585441 7.4342 0.608138 7.40015 0.619486C7.33206 0.642183 7.27532 0.676229 7.20723 0.698926C7.17318 0.721622 7.12779 0.744319 7.09374 0.755668C7.037 0.789713 6.96891 0.823759 6.91217 0.857804C6.87812 0.880501 6.83273 0.903198 6.79868 0.925895C6.74194 0.95994 6.6852 0.993986 6.6398 1.02803C6.59441 1.05073 6.56037 1.08477 6.52632 1.11882C6.48093 1.15286 6.42418 1.18691 6.37879 1.2323C6.3334 1.26635 6.29935 1.30039 6.26531 1.33444C6.21991 1.36848 6.17452 1.41388 6.12912 1.44792C6.08373 1.48197 6.04968 1.52736 6.01564 1.56141C5.98159 1.59545 5.9362 1.64085 5.90215 1.67489C5.85676 1.72029 5.82272 1.76568 5.78867 1.81108C5.75462 1.84512 5.72058 1.89051 5.68653 1.92456C5.65249 1.96995 5.60709 2.0267 5.57305 2.07209C5.539 2.10614 5.51631 2.15153 5.48226 2.18557C5.44822 2.24232 5.41417 2.29906 5.38013 2.3558C5.35743 2.38985 5.33473 2.43524 5.31203 2.46929C5.27799 2.52603 5.24394 2.59412 5.2099 2.65086C5.1872 2.68491 5.1645 2.7303 5.15316 2.76435C5.11911 2.83244 5.09641 2.88918 5.06237 2.95727C5.05102 2.99132 5.02832 3.01401 5.01697 3.04806V3.05941C4.96023 3.19559 4.91484 3.33177 4.86944 3.46795C4.74461 3.88784 4.66517 4.34178 4.66517 4.80707C4.66517 3.97863 4.39281 3.20694 3.95022 2.58277C3.3374 2.12883 2.53166 1.76568 1.4649 1.66355V2.3785C2.52031 2.50333 3.29201 2.92322 3.82539 3.39986C3.24661 3.16154 2.47492 2.97997 1.4649 2.97997V3.68357C3.81404 3.67222 4.61978 4.75033 4.66517 4.81842V8.81308L5.01697 8.9833L5.36878 8.81308V4.81842C5.35743 2.67356 7.10509 0.925895 9.24995 0.925895V0.869152V0.279032V0.22229Z" />
<path d="M7.40026 1.39085C7.38891 1.39085 7.38891 1.4022 7.37756 1.4022C7.38891 1.4022 7.38891 1.39085 7.40026 1.39085Z" />
<path
  d="M3.75735 2.35608C3.71196 2.29934 3.66656 2.24259 3.60982 2.1972C3.57578 2.15181 3.54173 2.11776 3.49634 2.07237C3.45094 2.02697 3.40555 1.98158 3.36016 1.94753C3.24667 1.8454 3.13319 1.75461 3.0197 1.66382C3.00835 1.65247 2.997 1.65247 2.98566 1.64113C2.90622 1.58438 2.82678 1.53899 2.74734 1.48225C2.72464 1.4709 2.71329 1.45955 2.6906 1.4482C2.61116 1.40281 2.53172 1.35741 2.44093 1.31202C2.41823 1.30067 2.40688 1.28932 2.38419 1.28932C2.2934 1.25528 2.21396 1.20988 2.12317 1.17584C2.10048 1.16449 2.08913 1.16449 2.06643 1.15314C1.97564 1.13044 1.88485 1.0964 1.79407 1.0737C1.78272 1.0737 1.77137 1.06235 1.74867 1.06235C1.65789 1.03966 1.55575 1.00561 1.45361 0.994263V1.66382C2.52037 1.76596 3.32611 2.14046 3.93893 2.58305C3.88218 2.50361 3.82544 2.42417 3.75735 2.35608ZM1.45361 3.68385V7.26996L3.48499 8.24593L4.65388 8.81335V4.8187C4.59714 4.7506 3.80275 3.6725 1.45361 3.68385ZM1.45361 2.37878V2.98024C2.46363 2.98024 3.23532 3.16182 3.81409 3.40014C3.26937 2.91215 2.50902 2.49226 1.45361 2.37878Z" opacity="0.4"/>
</svg>
