<svg viewBox="0 0 28 28" xmlns="http://www.w3.org/2000/svg">
<path d="M16.3333 4.641L20.699 9.33334H17.1663C16.7067 9.33334 16.3333 8.88884 16.3333 8.34167V4.641ZM23.0312 8.54934L17.8453 2.716C17.6248 2.47217 17.311 2.33334 16.982 2.33334H7.64866C6.00366 2.33334 4.66666 3.64234 4.66666 5.25V22.75C4.66666 24.3577 6.00366 25.6667 7.64866 25.6667H20.3513C21.9963 25.6667 23.3333 24.3577 23.3333 22.75V9.33334C23.3333 9.04284 23.226 8.764 23.0312 8.54934Z" />
<path d="M16.3333 4.641L20.699 9.33334H17.1663C16.7067 9.33334 16.3333 8.88884 16.3333 8.34167V4.641ZM23.0312 8.54934L17.8453 2.716C17.6248 2.47217 17.311 2.33334 16.982 2.33334H7.64866C6.00366 2.33334 4.66666 3.64234 4.66666 5.25V22.75C4.66666 24.3577 6.00366 25.6667 7.64866 25.6667H20.3513C21.9963 25.6667 23.3333 24.3577 23.3333 22.75V9.33334C23.3333 9.04284 23.226 8.764 23.0312 8.54934Z"/>
</svg>
