<svg viewBox="0 0 13 7" xmlns="http://www.w3.org/2000/svg">
<path d="M12.7331 3.08926L10.1902 0.50538C9.88582 0.191124 9.36651 0.173665 9.04417 0.487921C8.73975 0.784718 8.72184 1.27356 9.02627 1.58782L10.244 2.82738H3.38542L4.60313 1.58782C4.90756 1.27356 4.90756 0.784718 4.58522 0.470462C4.26289 0.173665 3.76148 0.173665 3.43914 0.487921L0.896289 3.08926C0.591862 3.38606 0.591862 3.8749 0.896289 4.1717L3.43914 6.73812C3.60031 6.89525 3.8152 6.98254 4.01218 6.98254C4.20917 6.98254 4.40615 6.91271 4.56731 6.75558C4.88965 6.45878 4.88965 5.95248 4.58522 5.63822L3.36752 4.41612H10.2619L9.02627 5.65568C8.72184 5.96994 8.72184 6.45878 9.04417 6.77304C9.20534 6.91271 9.40232 7 9.5993 7C9.81419 7 10.0291 6.91271 10.1723 6.75558L12.7152 4.18916C13.0196 3.8749 13.0196 3.38606 12.7331 3.08926Z"/>
</svg>
