<svg viewBox="0 0 11 10" xmlns="http://www.w3.org/2000/svg">
  <path
    d="M8.50085 4.16624L6.81631 2.47952L8.03393 1.25969L9.71785 2.94579L8.50085 4.16624ZM4.16354 8.51355L2.30273 8.68317L2.46774 6.83309L5.97872 3.31756L7.66389 5.00491L4.16354 8.51355ZM10.6167 2.07521L10.6161 2.07458L8.90464 0.360942C8.44147 -0.101578 7.64576 -0.123483 7.20697 0.317757L1.5839 5.9481C1.38013 6.15151 1.25387 6.42189 1.22762 6.70791L0.990717 9.3178C0.974465 9.50243 1.0401 9.68519 1.17136 9.81662C1.2895 9.93491 1.44889 10 1.61328 10C1.63266 10 1.65141 9.99937 1.67016 9.9975L4.27667 9.76029C4.56295 9.734 4.83235 9.6082 5.0355 9.4048L10.6592 3.77382C11.1142 3.31694 11.0949 2.55462 10.6167 2.07521Z"
  />
</svg>
