<svg viewBox="0 0 16 16" xmlns="http://www.w3.org/2000/svg">
<path fill-rule="evenodd" clip-rule="evenodd" d="M12.6666 12H3.33325C2.96592 12 2.66659 11.7013 2.66659 11.3333V4.83329L7.59992 8.53329C7.71859 8.62263 7.85925 8.66663 7.99992 8.66663C8.14058 8.66663 8.28125 8.62263 8.39992 8.53329L13.3333 4.83329V11.3333C13.3333 11.7013 13.0339 12 12.6666 12ZM12.2219 3.99996L7.99992 7.16663L3.77792 3.99996H12.2219ZM12.6666 2.66663H3.33325C2.23059 2.66663 1.33325 3.56396 1.33325 4.66663V11.3333C1.33325 12.436 2.23059 13.3333 3.33325 13.3333H12.6666C13.7693 13.3333 14.6666 12.436 14.6666 11.3333V4.66663C14.6666 3.56396 13.7693 2.66663 12.6666 2.66663Z"/>
</svg>
