<svg viewBox="0 0 16 18" xmlns="http://www.w3.org/2000/svg">
<path fill-rule="evenodd" clip-rule="evenodd" d="M3.83333 12.3327C3.83333 11.8743 4.20833 11.4993 4.66667 11.4993C5.125 11.4993 5.5 11.8743 5.5 12.3327C5.5 12.791 5.125 13.166 4.66667 13.166C4.20833 13.166 3.83333 12.791 3.83333 12.3327ZM8 11.4993H11.3333C11.7917 11.4993 12.1667 11.8743 12.1667 12.3327C12.1667 12.791 11.7917 13.166 11.3333 13.166H8C7.54167 13.166 7.16667 12.791 7.16667 12.3327C7.16667 11.8743 7.54167 11.4993 8 11.4993ZM13 15.666H3C2.54083 15.666 2.16667 15.2918 2.16667 14.8327V9.83268H13.8333V14.8327C13.8333 15.2918 13.4592 15.666 13 15.666ZM3 3.99935H3.83333V4.83268C3.83333 5.29102 4.20833 5.66602 4.66667 5.66602C5.125 5.66602 5.5 5.29102 5.5 4.83268V3.99935H10.5V4.83268C10.5 5.29102 10.875 5.66602 11.3333 5.66602C11.7917 5.66602 12.1667 5.29102 12.1667 4.83268V3.99935H13C13.4592 3.99935 13.8333 4.37352 13.8333 4.83268V8.16602H2.16667V4.83268C2.16667 4.37352 2.54083 3.99935 3 3.99935ZM13 2.33268H12.1667V1.49935C12.1667 1.04102 11.7917 0.666016 11.3333 0.666016C10.875 0.666016 10.5 1.04102 10.5 1.49935V2.33268H5.5V1.49935C5.5 1.04102 5.125 0.666016 4.66667 0.666016C4.20833 0.666016 3.83333 1.04102 3.83333 1.49935V2.33268H3C1.62167 2.33268 0.5 3.45435 0.5 4.83268V14.8327C0.5 16.211 1.62167 17.3327 3 17.3327H13C14.3783 17.3327 15.5 16.211 15.5 14.8327V4.83268C15.5 3.45435 14.3783 2.33268 13 2.33268Z"/>
</svg>
