<svg xmlns="http://www.w3.org/2000/svg"  viewBox="0 0 20 20"><path fill-rule="evenodd" d="M15.835 3.355c.458.002.829.374.829.832l.002 4.146c.001.46-.372.834-.832.834A.834.834 0 0 1 15 8.335l-.002-2.154-2.742 2.742a.831.831 0 0 1-1.179 0 .834.834 0 0 1 0-1.178l2.734-2.734-2.148-.01a.834.834 0 0 1 .003-1.667h.005l4.164.02zm-8.09 7.723a.832.832 0 1 1 1.178 1.178L6.179 15 8.334 15a.833.833 0 0 1 0 1.667h-.001l-4.146-.003a.833.833 0 0 1-.833-.829l-.02-4.164a.834.834 0 0 1 .829-.837h.004c.458 0 .83.37.833.829l.011 2.148 2.733-2.733z" clip-rule="evenodd"/></svg>
