<svg viewBox="0 0 16 4" xmlns="http://www.w3.org/2000/svg">
<path d="M8 0.22168C7.01867 0.22168 6.22222 1.01812 6.22222 1.99946C6.22222 2.98079 7.01867 3.77724 8 3.77724C8.98133 3.77724 9.77778 2.98079 9.77778 1.99946C9.77778 1.01812 8.98133 0.22168 8 0.22168ZM14.2222 0.22168C13.2409 0.22168 12.4444 1.01812 12.4444 1.99946C12.4444 2.98079 13.2409 3.77724 14.2222 3.77724C15.2036 3.77724 16 2.98079 16 1.99946C16 1.01812 15.2036 0.22168 14.2222 0.22168ZM0 1.99989C0 1.01856 0.796445 0.222113 1.77778 0.222113C2.75911 0.222113 3.55556 1.01856 3.55556 1.99989C3.55556 2.98122 2.75911 3.77767 1.77778 3.77767C0.796445 3.77767 0 2.98122 0 1.99989Z" />
</svg>
