<svg viewBox="0 0 16 15" xmlns="http://www.w3.org/2000/svg">
<path fill-rule="evenodd" clip-rule="evenodd" d="M9.28866 6.5834C6.31949 6.5834 3.64116 7.94507 1.94699 10.1326C2.72616 6.9084 5.72199 4.50007 9.28866 4.50007C9.74949 4.50007 10.122 4.12757 10.122 3.66673V2.06423L14.142 5.54257L10.122 9.05257V7.41673C10.122 6.9559 9.74949 6.5834 9.28866 6.5834ZM1.14949 14.5001C1.53366 14.5001 1.86866 14.2376 1.95949 13.8642C2.70116 10.8234 5.31032 8.62673 8.45532 8.29423V9.2284C8.45532 9.81673 8.80449 10.3409 9.36616 10.5951C9.97533 10.8726 10.6862 10.7726 11.1803 10.3417L15.402 6.65507C15.7295 6.3684 15.917 5.96257 15.917 5.54173C15.917 5.1209 15.7295 4.71507 15.402 4.4284L11.1803 0.741734C10.6862 0.3109 9.97533 0.2109 9.36616 0.4884C8.80449 0.742567 8.45532 1.26673 8.45532 1.85507V2.87007C3.76866 3.2809 0.0836582 7.12507 0.0836582 11.7917C0.0836582 12.4667 0.170325 13.1634 0.340325 13.8634C0.430326 14.2376 0.764491 14.5001 1.14949 14.5001Z" />
</svg>
