<svg viewBox="0 0 20 20" fill="none" xmlns="http://www.w3.org/2000/svg">
  <path fill-rule="evenodd" clip-rule="evenodd"
        d="M10.0004 11.2502C9.3112 11.2502 8.75037 10.6893 8.75037 10.0002C8.75037 9.31101 9.3112 8.75018 10.0004 8.75018C10.6895 8.75018 11.2504 9.31101 11.2504 10.0002C11.2504 10.6893 10.6895 11.2502 10.0004 11.2502ZM10.0004 7.08351C8.39203 7.08351 7.0837 8.39185 7.0837 10.0002C7.0837 11.6085 8.39203 12.9168 10.0004 12.9168C11.6087 12.9168 12.917 11.6085 12.917 10.0002C12.917 8.39185 11.6087 7.08351 10.0004 7.08351ZM10.1835 14.1648C6.59512 14.2482 4.25428 11.179 3.47762 9.99651C4.33262 8.65901 6.48595 5.92068 9.81762 5.83568C13.3918 5.74485 15.746 8.82151 16.5226 10.004C15.6685 11.3415 13.5143 14.0798 10.1835 14.1648ZM18.2234 9.58568C17.6918 8.65901 14.7551 4.01401 9.77512 4.16985C5.16845 4.28651 2.48928 8.34485 1.77762 9.58568C1.63012 9.84235 1.63012 10.1582 1.77762 10.4148C2.30178 11.329 5.13512 15.8332 10.021 15.8332C10.0893 15.8332 10.1576 15.8323 10.226 15.8307C14.8318 15.7132 17.5118 11.6557 18.2234 10.4148C18.3701 10.1582 18.3701 9.84235 18.2234 9.58568Z"
        fill="#7B819B"
  />
</svg>
