<svg viewBox="0 0 20 20" xmlns="http://www.w3.org/2000/svg">
<path d="M19.4366 3.82738L16.0845 0.550674C15.7249 0.19918 15.2374 0 14.73 0L1.91781 3.97364e-06C0.859021 0.00390946 0 0.843589 0 1.87854V18.1254C0 19.1603 0.859021 20 1.91781 20L18.0822 20C19.141 20 20 19.1603 20 18.1254V5.15524C20 4.65925 19.7962 4.17887 19.4366 3.82738ZM18.5337 4.71392C18.6176 4.79594 18.6735 4.89358 18.7015 5.00293H14.8858V1.27319C14.9977 1.30053 15.0976 1.3552 15.1815 1.43722L18.5337 4.71392ZM18.0822 18.7502L1.91781 18.7502C1.56621 18.7502 1.27854 18.4691 1.27854 18.1254V1.87854C1.27854 1.53486 1.56621 1.25367 1.91781 1.25367L13.6073 1.25366V5.31537C13.6073 5.8348 14.0348 6.25269 14.5662 6.25269H18.7215V18.1254C18.7215 18.469 18.4338 18.7502 18.0822 18.7502ZM16.1644 8.57645V8.88889C16.1644 9.14665 15.9486 9.35755 15.6849 9.35755H4.09057C3.82687 9.35755 3.61111 9.14665 3.61111 8.88889V8.57645C3.61111 8.31869 3.82687 8.10779 4.09057 8.10779H15.6849C15.9486 8.10779 16.1644 8.31869 16.1644 8.57645ZM16.1644 11.9098V12.2222C16.1644 12.48 15.9486 12.6909 15.6849 12.6909H4.09057C3.82687 12.6909 3.61111 12.48 3.61111 12.2222V11.9098C3.61111 11.652 3.82687 11.4411 4.09057 11.4411H15.6849C15.9486 11.4411 16.1644 11.652 16.1644 11.9098ZM16.1644 15V15.3124C16.1644 15.5702 15.9486 15.7811 15.6849 15.7811H4.09057C3.82687 15.7811 3.61111 15.5702 3.61111 15.3124V15C3.61111 14.7422 3.82687 14.5313 4.09057 14.5313H15.6849C15.9486 14.5313 16.1644 14.7422 16.1644 15Z" />
</svg>
