<svg viewBox="0 0 16 16" xmlns="http://www.w3.org/2000/svg">
<path fill-rule="evenodd" clip-rule="evenodd" d="M9.33346 8.66732H8.66679V8.00065C8.66679 7.63265 8.36879 7.33398 8.00013 7.33398C7.63146 7.33398 7.33346 7.63265 7.33346 8.00065V8.66732H6.66679C6.29813 8.66732 6.00013 8.96598 6.00013 9.33398C6.00013 9.70198 6.29813 10.0007 6.66679 10.0007H7.33346V10.6673C7.33346 11.0353 7.63146 11.334 8.00013 11.334C8.36879 11.334 8.66679 11.0353 8.66679 10.6673V10.0007H9.33346C9.70213 10.0007 10.0001 9.70198 10.0001 9.33398C10.0001 8.96598 9.70213 8.66732 9.33346 8.66732ZM11.6297 13.334H4.37033C4.16633 13.334 4.00033 13.1847 4.00033 13.0007V3.00065C4.00033 2.81665 4.16633 2.66732 4.37033 2.66732H8.00033V4.76732C8.00033 5.81532 8.81166 6.66732 9.80966 6.66732H12.0003V13.0007C12.0003 13.1847 11.8343 13.334 11.6297 13.334ZM9.33366 3.31932L11.1617 5.33398H9.80966C9.54699 5.33398 9.33366 5.07998 9.33366 4.76732V3.31932ZM13.1603 5.55265L9.53099 1.55265C9.40433 1.41332 9.22566 1.33398 9.03699 1.33398H4.37033C3.43099 1.33398 2.66699 2.08198 2.66699 3.00065V13.0007C2.66699 13.9193 3.43099 14.6673 4.37033 14.6673H11.6297C12.569 14.6673 13.3337 13.9193 13.3337 13.0007V6.00065C13.3337 5.83465 13.2717 5.67532 13.1603 5.55265Z"/>
</svg>
