<svg viewBox="0 0 20 20" xmlns="http://www.w3.org/2000/svg">
<path d="M18.7828 16.5603H15.98V14.7399C15.98 14.4163 15.7149 14.154 15.3878 14.154H8.67604V10.3623L16.8713 6.97629C17.065 6.87465 17.1861 6.67551 17.1861 6.45859C17.1861 6.24168 17.065 6.04254 16.8713 5.9409L9.08971 3.20566C9.55475 2.88836 9.86034 2.35785 9.86034 1.75781C9.86034 0.788555 9.06342 0 8.08388 0C7.10435 0 6.30743 0.788555 6.30743 1.75781C6.30743 2.52168 6.80251 3.17297 7.49173 3.41484C7.49173 3.81734 7.49173 13.7517 7.49173 14.154H4.61216C4.28513 14.154 4.02001 14.4163 4.02001 14.7399V16.5603H1.21715C0.890126 16.5603 0.625 16.8226 0.625 17.1462V19.4141C0.625 19.7377 0.890126 20 1.21715 20H18.7828C19.1099 20 19.375 19.7377 19.375 19.4141V17.1462C19.375 16.8226 19.1099 16.5603 18.7828 16.5603ZM15.1276 6.45859L8.67604 9.0359V4.31508L15.1276 6.45859ZM8.08388 1.17188C8.4104 1.17188 8.67604 1.43473 8.67604 1.75781C8.67604 2.0809 8.4104 2.34375 8.08388 2.34375C7.75737 2.34375 7.49173 2.0809 7.49173 1.75781C7.49173 1.43473 7.75737 1.17188 8.08388 1.17188ZM18.1907 18.8281H1.8093V17.7322H4.61216H5.20431H16.1016L15.4789 16.5603H5.20431V15.3259H14.7957V17.1462C14.7957 17.4698 15.0608 17.7322 15.3878 17.7322H18.1907V18.8281Z" />
</svg>
