<svg width="20" height="20" viewBox="0 0 20 20" fill="none" xmlns="http://www.w3.org/2000/svg">
<path fill-rule="evenodd" clip-rule="evenodd" d="M11.6665 10.8343H10.8332V10.001C10.8332 9.54264 10.4582 9.16764 9.99984 9.16764C9.5415 9.16764 9.1665 9.54264 9.1665 10.001V10.8343H8.33317C7.87484 10.8343 7.49984 11.2093 7.49984 11.6676C7.49984 12.126 7.87484 12.501 8.33317 12.501H9.1665V13.3343C9.1665 13.7926 9.5415 14.1676 9.99984 14.1676C10.4582 14.1676 10.8332 13.7926 10.8332 13.3343V12.501H11.6665C12.1248 12.501 12.4998 12.126 12.4998 11.6676C12.4998 11.2093 12.1248 10.8343 11.6665 10.8343ZM16.6665 15.058C16.6665 15.2563 16.4798 15.418 16.2498 15.418H3.74984C3.51984 15.418 3.33317 15.2563 3.33317 15.058V11.4638V4.9438C3.33317 4.74547 3.51984 4.58464 3.74984 4.58464H7.18817L9.35484 7.23297C9.51317 7.42714 9.74984 7.53964 9.99984 7.53964H16.2498C16.4798 7.53964 16.6665 7.70047 16.6665 7.89964V15.058ZM16.2498 5.87297H10.3948L8.229 3.2238C8.07067 3.02964 7.83317 2.91797 7.584 2.91797H3.74984C2.6015 2.91797 1.6665 3.8263 1.6665 4.9438V15.058C1.6665 16.1755 2.6015 17.0846 3.74984 17.0846H16.2498C17.3982 17.0846 18.3332 16.1755 18.3332 15.058V7.89964C18.3332 6.7813 17.3982 5.87297 16.2498 5.87297Z" fill="#7B819B"/>
</svg>
