<svg viewBox="0 0 20 20" xmlns="http://www.w3.org/2000/svg">
<path d="M20 5.41991L15.4356 0.9375L13.7386 2.64747C12.7551 2.05294 11.4525 2.18226 10.6094 3.03148L9.36737 4.28292C8.90869 3.89603 8.33389 3.68475 7.72675 3.68475C7.7211 3.68475 7.71545 3.68475 7.70996 3.68475C7.2464 3.68778 6.80283 3.81331 6.41602 4.04553L4.70123 2.33981L0 7.0162L1.73065 8.73771C1.47186 9.14312 1.33423 9.61379 1.33728 10.1054C1.34171 10.7808 1.61026 11.4142 2.09335 11.8887L8.88428 18.5577C9.21616 18.8835 9.65469 19.0625 10.1204 19.0625H10.1321C10.6021 19.0595 11.0429 18.8746 11.3731 18.5417C11.6805 18.2323 11.8576 17.8291 11.8785 17.3979C12.3116 17.3717 12.7145 17.1903 13.0219 16.8806C13.3293 16.5709 13.5065 16.1674 13.5271 15.7358C13.9444 15.7103 14.3542 15.5383 14.6704 15.2197C14.9869 14.9008 15.1547 14.4905 15.1749 14.0748C15.5925 14.0493 16.0027 13.8773 16.319 13.5586C16.8562 13.0172 16.9653 12.2129 16.6496 11.5642L17.957 10.247C18.7999 9.39781 18.9131 8.10038 18.3029 7.12989L20 5.41991ZM1.65924 7.0162L4.70123 3.99028L5.53619 4.82068L2.51358 7.86603L1.65924 7.0162ZM15.4842 12.7387C15.2568 12.9676 14.8846 12.97 14.6545 12.744L12.9846 11.104L12.1603 11.9347L13.8301 13.5744C14.0604 13.8005 14.0628 14.1707 13.8354 14.3998C13.6084 14.6287 13.2362 14.6311 13.006 14.4052C13.006 14.4051 13.006 14.4051 13.0058 14.4051L11.3361 12.7651L10.5116 13.5956L12.1815 15.2356C12.2931 15.3451 12.355 15.4912 12.3561 15.6471C12.357 15.803 12.2971 15.9498 12.1869 16.0607C12.0769 16.1717 11.9299 16.2333 11.7732 16.2344C11.7719 16.2344 11.7706 16.2344 11.7693 16.2344C11.6141 16.2344 11.4679 16.1747 11.3573 16.0662L9.68735 14.4262L8.86307 15.2567L10.533 16.8966C10.7631 17.1227 10.7655 17.4929 10.5383 17.722C10.4282 17.8328 10.2812 17.8944 10.1245 17.8955C10.1233 17.8955 10.1221 17.8955 10.1207 17.8955C9.96536 17.8955 9.81918 17.8358 9.70856 17.7271L2.91779 11.0581C2.65747 10.8027 2.51297 10.4616 2.51068 10.098C2.50824 9.73431 2.64847 9.39143 2.90527 9.13264L6.75217 5.2569C7.00897 4.99811 7.35184 4.85422 7.71744 4.8518C8.01819 4.85028 8.30536 4.94453 8.54279 5.1206L5.6691 7.9791C4.98306 8.66167 4.98306 9.77225 5.66925 10.4548C6.35544 11.1374 7.47192 11.1374 8.15811 10.4548L11.0571 7.57111L15.479 11.9137C15.7089 12.1397 15.7112 12.5098 15.4842 12.7387ZM17.122 9.4271L15.8856 10.6729L11.0518 5.92595L7.32849 9.62958C7.09976 9.8571 6.7276 9.8571 6.49887 9.62958C6.27014 9.40206 6.27014 9.03186 6.49887 8.80434L10.2167 5.10603L10.2078 5.09723L11.4444 3.8514C11.9746 3.31713 12.8432 3.31167 13.3801 3.83911L17.1095 7.5016C17.6468 8.02904 17.6523 8.89283 17.122 9.4271ZM17.5165 6.26109L14.622 3.41852L15.4463 2.58797L18.3408 5.43039L17.5165 6.26109Z" />
</svg>
