<svg viewBox="0 0 8 10" xmlns="http://www.w3.org/2000/svg">
<path fill-rule="evenodd" clip-rule="evenodd" d="M4.29786 0.958691L7.50994 4.24369C7.66244 4.40036 7.74994 4.61869 7.74994 4.84327V8.33327C7.74994 8.79286 7.39702 9.16661 6.96327 9.16661H5.6666V5.41661C5.6666 5.18661 5.48036 4.99994 5.24994 4.99994H2.74994C2.51952 4.99994 2.33327 5.18661 2.33327 5.41661V9.16661H1.03702C0.603272 9.16661 0.249939 8.79286 0.249939 8.33327V4.84327C0.249939 4.61869 0.337439 4.40036 0.489522 4.24411L3.70202 0.958691C3.85911 0.798275 4.14077 0.798275 4.29786 0.958691ZM4.83336 8.75011H3.16669V5.83344H4.83336V8.75011Z" />
</svg>
