<svg viewBox="0 0 20 20" fill="none"
  xmlns="http://www.w3.org/2000/svg">
  <rect width="20" height="20" rx="10" fill="#FFE6A5"/>
  <path d="M11.061 9.81868H11.7646C11.7646 8.45686 12.8768 7.33337 14.25 7.33337V6.62976C12.4909 6.64111 11.061 8.05967 11.061 9.81868Z" fill="#F19120"/>
  <path d="M14.2501 8.04822C13.4557 8.04822 12.7861 8.57025 12.5592 9.2852C12.5024 9.45543 12.4797 9.62565 12.4797 9.80723H13.1833C13.1833 9.59161 13.2514 9.38734 13.3649 9.21711C13.5578 8.9334 13.8756 8.75182 14.2501 8.75182V8.04822Z" fill="#F19120"/>
  <path d="M9.65387 9.81842C9.65387 8.88784 9.31342 8.02536 8.75734 7.3558C8.71195 7.29906 8.66656 7.24232 8.60981 7.19692C8.57577 7.15153 8.54172 7.11748 8.49633 7.07209C8.45093 7.0267 8.40554 6.9813 8.36015 6.94726C8.24666 6.84512 8.13318 6.75433 8.01969 6.66355C8.00834 6.6522 7.997 6.6522 7.98565 6.64085C7.90621 6.58411 7.82677 6.53871 7.74733 6.48197C7.72463 6.47062 7.71328 6.45927 7.69059 6.44792C7.61115 6.40253 7.53171 6.35714 7.44092 6.32309C7.41822 6.31174 7.40688 6.30039 7.38418 6.28905C7.29339 6.255 7.21395 6.20961 7.12316 6.17556C7.10047 6.16421 7.08912 6.16421 7.06642 6.15286C6.98698 6.13017 6.88485 6.09612 6.79406 6.07342C6.78271 6.07342 6.77136 6.06208 6.74866 6.06208C6.65788 6.02803 6.55574 6.00533 6.4536 5.99399V12.2697L8.48498 13.2457L10.0057 13.9833L14.25 11.9292V12.7123H14.216L14.2273 12.735L9.99433 14.7777L8.3034 13.9606L5.7727 12.7236V12.7123H5.75V5.22229C5.76135 5.22229 5.76135 5.22229 5.7727 5.22229C5.89753 5.22229 6.02236 5.23364 6.13585 5.23364C6.19259 5.23364 6.23798 5.24499 6.29473 5.25634C6.37417 5.26768 6.4536 5.27903 6.5217 5.29038C6.57844 5.30173 6.63518 5.31308 6.69192 5.32443C6.77136 5.33577 6.83945 5.35847 6.90754 5.36982C6.96429 5.38117 7.02103 5.40387 7.07777 5.41521C7.14586 5.43791 7.21395 5.46061 7.28204 5.4833C7.33879 5.506 7.38418 5.51735 7.44092 5.54005C7.55441 5.58544 7.65654 5.63083 7.75868 5.67623C7.81542 5.69893 7.86081 5.73297 7.91756 5.75567C7.9743 5.78971 8.03104 5.82376 8.08778 5.84646C8.13318 5.89185 8.18992 5.92589 8.24666 5.95994C8.29206 5.99399 8.3488 6.02803 8.39419 6.06208C8.45093 6.09612 8.49633 6.14152 8.55307 6.17556C8.59846 6.20961 8.64386 6.24365 8.68925 6.28905C8.7233 6.32309 8.76869 6.34579 8.80274 6.37983C9.31342 6.83377 9.73331 7.41254 10.0057 8.05941H10.017V8.07075C9.7787 8.60413 9.65387 9.19425 9.65387 9.81842Z" fill="#67747A"/>
  <path d="M14.2499 5.22229C13.6257 5.22229 13.0356 5.34712 12.5022 5.57409H12.4909C12.4568 5.58544 12.4341 5.60814 12.4001 5.61949C12.332 5.64218 12.2753 5.67623 12.2072 5.69893C12.1731 5.72162 12.1277 5.74432 12.0937 5.75567C12.0369 5.78971 11.9688 5.82376 11.9121 5.8578C11.8781 5.8805 11.8327 5.9032 11.7986 5.92589C11.7419 5.95994 11.6851 5.99399 11.6397 6.02803C11.5943 6.05073 11.5603 6.08477 11.5263 6.11882C11.4809 6.15286 11.4241 6.18691 11.3787 6.2323C11.3333 6.26635 11.2993 6.30039 11.2652 6.33444C11.2199 6.36848 11.1745 6.41388 11.1291 6.44792C11.0837 6.48197 11.0496 6.52736 11.0156 6.56141C10.9815 6.59545 10.9361 6.64085 10.9021 6.67489C10.8567 6.72029 10.8227 6.76568 10.7886 6.81108C10.7546 6.84512 10.7205 6.89051 10.6865 6.92456C10.6524 6.96995 10.607 7.0267 10.573 7.07209C10.5389 7.10614 10.5162 7.15153 10.4822 7.18557C10.4482 7.24232 10.4141 7.29906 10.3801 7.3558C10.3574 7.38985 10.3347 7.43524 10.312 7.46929C10.2779 7.52603 10.2439 7.59412 10.2098 7.65086C10.1871 7.68491 10.1644 7.7303 10.1531 7.76435C10.119 7.83244 10.0964 7.88918 10.0623 7.95727C10.051 7.99132 10.0283 8.01401 10.0169 8.04806V8.05941C9.96017 8.19559 9.91478 8.33177 9.86938 8.46795C9.74455 8.88784 9.66511 9.34178 9.66511 9.80707C9.66511 8.97863 9.39275 8.20694 8.95016 7.58277C8.33734 7.12883 7.5316 6.76568 6.46484 6.66355V7.3785C7.52025 7.50333 8.29195 7.92322 8.82532 8.39986C8.24655 8.16154 7.47486 7.97997 6.46484 7.97997V8.68357C8.81398 8.67222 9.61972 9.75033 9.66511 9.81842V13.8131L10.0169 13.9833L10.3687 13.8131V9.81842C10.3574 7.67356 12.105 5.92589 14.2499 5.92589V5.86915V5.27903V5.22229Z" fill="#F19120"/>
  <path d="M12.4001 6.39087C12.3888 6.39087 12.3888 6.40222 12.3774 6.40222C12.3888 6.40222 12.3888 6.39087 12.4001 6.39087Z" fill="#67747A"/>
  <path d="M8.75735 7.35608C8.71196 7.29934 8.66656 7.24259 8.60982 7.1972C8.57578 7.15181 8.54173 7.11776 8.49634 7.07237C8.45094 7.02697 8.40555 6.98158 8.36016 6.94753C8.24667 6.8454 8.13319 6.75461 8.0197 6.66382C8.00835 6.65247 7.997 6.65247 7.98566 6.64113C7.90622 6.58438 7.82678 6.53899 7.74734 6.48225C7.72464 6.4709 7.71329 6.45955 7.6906 6.4482C7.61116 6.40281 7.53172 6.35741 7.44093 6.31202C7.41823 6.30067 7.40688 6.28932 7.38419 6.28932C7.2934 6.25528 7.21396 6.20988 7.12317 6.17584C7.10048 6.16449 7.08913 6.16449 7.06643 6.15314C6.97564 6.13044 6.88485 6.0964 6.79407 6.0737C6.78272 6.0737 6.77137 6.06235 6.74867 6.06235C6.65789 6.03966 6.55575 6.00561 6.45361 5.99426V6.66382C7.52037 6.76596 8.32611 7.14046 8.93893 7.58305C8.88218 7.50361 8.82544 7.42417 8.75735 7.35608ZM6.45361 8.68385V12.27L8.48499 13.2459L9.65388 13.8134V9.8187C9.59714 9.7506 8.80275 8.6725 6.45361 8.68385ZM6.45361 7.37878V7.98024C7.46363 7.98024 8.23532 8.16182 8.81409 8.40014C8.26937 7.91215 7.50902 7.49226 6.45361 7.37878Z" fill="#FCCB8D"/>
</svg>
