<svg viewBox="0 0 22 22" xmlns="http://www.w3.org/2000/svg">
<path
  d="M19.1667 17.8063C19.1667 18.5577 18.644 19.1667 18 19.1667H4L12.827 11.2135C13.114 10.9277 13.6343 10.9288 13.9155 11.2123L19.1667 16.4367V17.8063ZM6.33333 5.16667C7.29933 5.16667 8.08333 5.95067 8.08333 6.91667C8.08333 7.88267 7.29933 8.66667 6.33333 8.66667C5.36733 8.66667 4.58333 7.88267 4.58333 6.91667C4.58333 5.95067 5.36733 5.16667 6.33333 5.16667ZM18 0.5H4C2.07033 0.5 0.5 2.07033 0.5 4V18C0.5 19.9297 2.07033 21.5 4 21.5H18C19.9297 21.5 21.5 19.9297 21.5 18V4C21.5 2.07033 19.9297 0.5 18 0.5Z" />
</svg>
