<svg viewBox="0 0 28 28" fill="none"
  xmlns="http://www.w3.org/2000/svg">
  <path fill-rule="evenodd" clip-rule="evenodd" d="M12.8333 9.33331C12.8333 8.68931 13.3559 8.16665 13.9999 8.16665C14.6439 8.16665 15.1666 8.68931 15.1666 9.33331C15.1666 9.97731 14.6439 10.5 13.9999 10.5C13.3559 10.5 12.8333 9.97731 12.8333 9.33331ZM12.8333 12.8333C12.8333 12.1893 13.3559 11.6666 13.9999 11.6666C14.6439 11.6666 15.1666 12.1893 15.1666 12.8333V18.6666C15.1666 19.3106 14.6439 19.8333 13.9999 19.8333C13.3559 19.8333 12.8333 19.3106 12.8333 18.6666V12.8333ZM13.9999 23.3333C8.85375 23.3333 4.66659 19.1461 4.66659 14C4.66659 8.85381 8.85375 4.66665 13.9999 4.66665C19.1461 4.66665 23.3333 8.85381 23.3333 14C23.3333 19.1461 19.1461 23.3333 13.9999 23.3333ZM13.9999 2.33331C7.55642 2.33331 2.33325 7.55648 2.33325 14C2.33325 20.4435 7.55642 25.6666 13.9999 25.6666C20.4423 25.6666 25.6666 20.4435 25.6666 14C25.6666 7.55648 20.4423 2.33331 13.9999 2.33331Z" fill="currentColor"/>
</svg>
