<svg viewBox="0 0 14 14" xmlns="http://www.w3.org/2000/svg">
<path d="M7 8.73776C6.07086 8.73776 5.29657 7.95962 5.29657 7.02586C5.29657 6.09209 6.07086 5.31395 7 5.31395C7.92915 5.31395 8.70344 6.09209 8.70344 7.02586C8.70344 7.95962 7.92915 8.73776 7 8.73776Z" />
<path fill-rule="evenodd" clip-rule="evenodd" d="M6.94838 1.78638C5.55466 1.78638 5.34819 1.78638 4.832 1.83825C4.26418 1.83825 3.90285 1.94201 3.59313 2.09763C3.2318 2.20139 2.92208 2.35701 2.66399 2.66827C2.35427 2.92765 2.19941 3.23891 2.04456 3.55016C1.94132 3.91329 1.83808 4.27643 1.83808 4.84706C1.78646 5.36582 1.78646 5.57333 1.78646 6.97398C1.78646 8.37463 1.78646 8.58214 1.83808 9.1009C1.83808 9.67153 1.94132 10.0347 2.09618 10.3459C2.25103 10.7091 2.40589 10.9684 2.71561 11.2797C3.02532 11.5909 3.28342 11.7466 3.64475 11.9022C3.95447 12.006 4.36742 12.1097 4.88361 12.1616C5.10484 12.1616 5.26338 12.1695 5.45692 12.1791C5.76014 12.1941 6.14928 12.2135 7 12.2135C8.39372 12.2135 8.6002 12.2135 9.11639 12.1616C9.6842 12.1616 10.0455 12.0578 10.3553 11.9022C10.7166 11.7466 10.9747 11.5909 11.2844 11.2797C11.5941 10.9684 11.749 10.7091 11.9038 10.3459C12.0071 10.0347 12.1103 9.61966 12.1619 9.1009C12.1619 8.87857 12.1698 8.71925 12.1793 8.52474C12.1943 8.22001 12.2135 7.82893 12.2135 6.97398C12.2135 5.57333 12.2135 5.36582 12.1619 4.84706C12.1619 4.27643 12.0587 3.91329 11.9038 3.60204C11.749 3.23891 11.5941 2.97953 11.2844 2.66827C10.9747 2.35701 10.7166 2.20139 10.3553 2.04576C10.0455 1.94201 9.63258 1.83825 9.11639 1.78638H6.94838ZM7 4.38018C5.55466 4.38018 4.36742 5.57333 4.36742 7.02586C4.36742 8.47838 5.55466 9.67153 7 9.67153C8.44534 9.67153 9.63258 8.47838 9.63258 7.02586C9.63258 5.57333 8.44534 4.38018 7 4.38018ZM10.7682 3.96517C10.7682 4.30897 10.4909 4.58768 10.1488 4.58768C9.80667 4.58768 9.52934 4.30897 9.52934 3.96517C9.52934 3.62137 9.80667 3.34266 10.1488 3.34266C10.4909 3.34266 10.7682 3.62137 10.7682 3.96517Z" />
</svg>
