<svg viewBox="0 0 10 10" xmlns="http://www.w3.org/2000/svg">
<path d="M2.39581 8.64583C2.10883 8.64583 1.87498 8.41198 1.87498 8.125C1.87498 7.83802 2.10883 7.60417 2.39581 7.60417H8.12498V8.64583H2.39581ZM2.39581 1.35417H8.12498V6.5625H2.39581C2.21196 6.5625 2.03852 6.6 1.87498 6.65833V1.875C1.87498 1.58802 2.10883 1.35417 2.39581 1.35417ZM8.64581 0.3125H2.39581C1.53435 0.3125 0.833313 1.01354 0.833313 1.875V8.125C0.833313 8.98646 1.53435 9.6875 2.39581 9.6875H8.12498H8.64581C8.93331 9.6875 9.16665 9.45417 9.16665 9.16667V8.64583V7.60417V0.833333C9.16665 0.545833 8.93331 0.3125 8.64581 0.3125Z"/>
</svg>
