<svg xmlns="http://www.w3.org/2000/svg" viewBox="0 0 24 24">
    <path fill-rule="evenodd"
          d="M3.948 6h16.103c.522 0 .95.427.95.949v.102a.952.952 0 0 1-.95.949H3.948A.95.95 0 0 1 3 7.051v-.102A.95.95 0 0 1 3.948 6zm16.103 5H3.948a.95.95 0 0 0-.948.949v.102a.95.95 0 0 0 .948.949h16.103a.952.952 0 0 0 .95-.949v-.102a.952.952 0 0 0-.95-.949zm0 5H3.948a.95.95 0 0 0-.948.949v.102a.95.95 0 0 0 .948.949h16.103a.952.952 0 0 0 .95-.949v-.102a.952.952 0 0 0-.95-.949z"
          clip-rule="evenodd"
    />
</svg>
