<svg xmlns="http://www.w3.org/2000/svg" viewBox="0 0 24 24">
  <path fill-rule="evenodd" d="M4.601 6h7.797c.331 0 .602.421.602.936v.128c0 .515-.27.936-.602.936H4.601C4.27 8 4 7.579 4 7.064v-.128C4 6.421 4.27 6 4.601 6zm7.797 5H4.601c-.331 0-.601.421-.601.936v.128c0 .515.27.936.601.936h7.797c.331 0 .602-.421.602-.936v-.128c0-.515-.27-.936-.602-.936zm0 5H4.601c-.331 0-.601.421-.601.936v.128c0 .515.27.936.601.936h7.797c.331 0 .602-.421.602-.936v-.128c0-.515-.27-.936-.602-.936z" clip-rule="evenodd"/><path d="M15 7a1 1 0 0 1 1-1h3a1 1 0 0 1 1 1v10a1 1 0 0 1-1 1h-3a1 1 0 0 1-1-1V7z"/>
</svg>
