<svg viewBox="0 0 18 14" xmlns="http://www.w3.org/2000/svg">
<path fill-rule="evenodd" clip-rule="evenodd" d="M14.8334 12H3.16669C2.70752 12 2.33335 11.6267 2.33335 11.1667V3.04168L8.50002 7.66668C8.64835 7.77834 8.82419 7.83334 9.00002 7.83334C9.17585 7.83334 9.35169 7.77834 9.50002 7.66668L15.6667 3.04168V11.1667C15.6667 11.6267 15.2925 12 14.8334 12ZM14.2775 2.00001L9.00002 5.95834L3.72252 2.00001H14.2775ZM14.8334 0.333344H3.16669C1.78835 0.333344 0.666687 1.45501 0.666687 2.83334V11.1667C0.666687 12.545 1.78835 13.6667 3.16669 13.6667H14.8334C16.2117 13.6667 17.3334 12.545 17.3334 11.1667V2.83334C17.3334 1.45501 16.2117 0.333344 14.8334 0.333344Z"/>
</svg>
