<svg viewBox="0 0 22 22" xmlns="http://www.w3.org/2000/svg">
  <path d="M5.69307 9.40788C5.69307 8.82198 6.16858 8.34647 6.75447 8.34647C7.34037 8.34647 7.81588 8.82198 7.81588 9.40788C7.81588 9.99377 7.34037 10.4693 6.75447 10.4693C6.16858 10.4693 5.69307 9.99377 5.69307 9.40788ZM11.0001 8.34647C10.4142 8.34647 9.9387 8.82198 9.9387 9.40788C9.9387 9.99377 10.4142 10.4693 11.0001 10.4693C11.586 10.4693 12.0615 9.99377 12.0615 9.40788C12.0615 8.82198 11.586 8.34647 11.0001 8.34647ZM15.2457 8.34647C14.6598 8.34647 14.1843 8.82198 14.1843 9.40788C14.1843 9.99377 14.6598 10.4693 15.2457 10.4693C15.8316 10.4693 16.3071 9.99377 16.3071 9.40788C16.3071 8.82198 15.8316 8.34647 15.2457 8.34647ZM19.4913 14.7149C19.4913 15.2997 19.0147 15.7763 18.4299 15.7763H7.34248C6.76613 15.7763 6.19935 15.9334 5.70367 16.2306L2.50885 18.1475V4.10086C2.50885 3.51602 2.98542 3.03945 3.57025 3.03945H18.4299C19.0147 3.03945 19.4913 3.51602 19.4913 4.10086V14.7149ZM18.4299 1.31769H3.57028C1.81472 1.31769 0.765625 2.34171 0.765625 4.09728V20.0183C0.765625 20.4004 0.882192 20.5517 1.21441 20.7396C1.40031 20.7396 1.28198 20.7396 1.46242 20.7396C1.65135 20.7396 1.70762 20.7522 1.87638 20.6503L6.65265 17.5424C6.81823 17.4426 7.15039 17.4408 7.34251 17.4408L18.4408 17.3665C20.1964 17.3665 21.2417 16.4561 21.2417 14.7006V4.08653C21.2417 2.33097 20.1855 1.31769 18.4299 1.31769Z"/>
</svg>
