<svg xmlns="http://www.w3.org/2000/svg">
    <path fill-rule="evenodd" clip-rule="evenodd"
          d="M5.83334 9.16671C5.83334 8.70671 6.20667 8.33338 6.66667 8.33338C7.12667 8.33338 7.5 8.70671 7.5 9.16671C7.5 9.62671 7.12667 10 6.66667 10C6.20667 10 5.83334 9.62671 5.83334 9.16671ZM10 8.33338C9.54 8.33338 9.16667 8.70671 9.16667 9.16671C9.16667 9.62671 9.54 10 10 10C10.46 10 10.8333 9.62671 10.8333 9.16671C10.8333 8.70671 10.46 8.33338 10 8.33338ZM13.3333 8.33338C12.8733 8.33338 12.5 8.70671 12.5 9.16671C12.5 9.62671 12.8733 10 13.3333 10C13.7933 10 14.1667 9.62671 14.1667 9.16671C14.1667 8.70671 13.7933 8.33338 13.3333 8.33338ZM16.582 10.2458C16.1595 12.9575 13.9737 15.2066 11.2662 15.7141C9.95867 15.9608 8.627 15.82 7.41867 15.3083C7.07617 15.1633 6.722 15.09 6.3745 15.09C6.21617 15.09 6.0595 15.105 5.90534 15.1358L3.562 15.6041L4.03117 13.2566C4.1295 12.7691 4.0695 12.2475 3.85867 11.7483C3.347 10.54 3.207 9.20913 3.45284 7.90079C3.96034 5.19329 6.20867 3.00746 8.92117 2.58496C11.0795 2.24913 13.1903 2.92913 14.7137 4.45246C16.2378 5.97663 16.9187 8.08829 16.582 10.2458ZM15.8928 3.27413C13.9887 1.37079 11.3553 0.521627 8.6645 0.93746C5.267 1.46746 2.45034 4.20413 1.8145 7.59329C1.50784 9.22496 1.6845 10.8866 2.32367 12.3975C2.4045 12.59 2.4295 12.7691 2.39784 12.93L1.68284 16.5033C1.62784 16.7766 1.71367 17.0591 1.91117 17.2558C2.06867 17.4141 2.28117 17.5 2.50034 17.5C2.5545 17.5 2.60867 17.495 2.66367 17.4841L6.23284 16.77C6.43784 16.7308 6.63617 16.7883 6.76867 16.8433C8.28117 17.4825 9.94284 17.6583 11.5728 17.3525C14.9628 16.7166 17.6995 13.9 18.2295 10.5025C18.6478 7.81329 17.797 5.17829 15.8928 3.27413Z"
    />
</svg>
