<svg viewBox="0 0 24 24" xmlns="http://www.w3.org/2000/svg">
  <path
    d="M21.075 17.0142C19.5756 15.5826 18.7332 13.6409 18.7332 11.6163V9.72264C18.7332 6.71032 16.5632 4.18225 13.6343 3.48498V1.56038C13.6343 0.698645 12.9026 0 12 0C11.0974 0 10.3657 0.698645 10.3657 1.56038V3.48493C7.43684 4.18225 5.26678 6.71027 5.26678 9.72259V11.6163C5.26678 13.6409 4.4244 15.5825 2.92502 17.0141C2.26596 17.6434 2.0688 18.5897 2.42548 19.4119C2.78216 20.2341 3.62243 20.7702 4.55447 20.7702H8.61719C8.61719 22.554 10.1317 24 12 24C13.8682 24 15.3828 22.5539 15.3828 20.7702H19.4455C20.3775 20.7702 21.2178 20.2341 21.5745 19.4119C21.9312 18.5898 21.7341 17.6434 21.075 17.0142ZM12 22.4146C11.0503 22.4146 10.2777 21.6769 10.2777 20.7702H13.7223C13.7223 21.6769 12.9497 22.4146 12 22.4146ZM20.0404 18.8052C19.9404 19.0358 19.7069 19.1847 19.4455 19.1847H4.55447C4.29311 19.1847 4.05959 19.0358 3.95957 18.8052C3.85955 18.5747 3.91435 18.3117 4.09916 18.1352C5.9229 16.394 6.92723 14.0788 6.92723 11.6163V9.72264C6.92723 7.05198 9.20285 4.87926 12 4.87926C14.7971 4.87926 17.0727 7.05198 17.0727 9.72264V11.6163C17.0727 14.0788 18.0771 16.394 19.9009 18.1352C20.0857 18.3117 20.1404 18.5747 20.0404 18.8052Z"
  />
</svg>
