<svg viewBox="0 0 16 16" xmlns="http://www.w3.org/2000/svg">
<path d="M4.4413 8.62236C4.14157 9.22486 4.48188 9.51286 5.25835 10.0049C5.91844 10.4219 6.83035 10.5744 7.41612 10.6354C7.17605 10.8714 8.2762 9.78936 5.10775 12.9058C4.43592 13.5643 5.5175 14.6208 6.18884 13.9763L8.0063 12.1838C8.70208 12.8683 9.36902 13.5243 9.82376 13.9788C10.4956 14.6258 11.5767 13.5783 10.9122 12.9083C10.8623 12.8598 8.44929 10.4929 8.59647 10.6379C9.18958 10.5769 10.0878 10.4154 10.7401 10.0074L10.7396 10.0069C11.516 9.51236 11.8564 9.22486 11.561 8.62236C11.3826 8.28036 10.9014 7.99436 10.2609 8.48886C10.2609 8.48886 9.39592 9.16636 8.00092 9.16636C6.60543 9.16636 5.74095 8.48886 5.74095 8.48886C5.10091 7.99186 4.61781 8.28036 4.4413 8.62236Z" />
<path d="M7.99994 8.25286C9.70054 8.25286 11.0892 6.89387 11.0892 5.22087C11.0892 3.54088 9.70054 2.18188 7.99994 2.18188C6.29885 2.18188 4.91021 3.54088 4.91021 5.22087C4.91021 6.89387 6.29885 8.25286 7.99994 8.25286ZM7.99994 3.72138C8.83557 3.72138 9.51718 4.39188 9.51718 5.22087C9.51718 6.04287 8.83557 6.71337 7.99994 6.71337C7.16431 6.71337 6.4827 6.04287 6.4827 5.22087C6.48221 4.39138 7.16382 3.72138 7.99994 3.72138Z" />
</svg>
