<svg viewBox="0 0 14 12" xmlns="http://www.w3.org/2000/svg">
<path d="M2.14158 0.750047C2.14121 0.750047 2.14078 0.750047 2.1404 0.750047C2.00799 0.750047 1.88345 0.801663 1.78941 0.895468C1.69434 0.990311 1.64197 1.11659 1.64197 1.25103V8.76321C1.64197 9.03869 1.86696 9.26335 2.14356 9.26406C3.30967 9.26684 5.26336 9.50988 6.61113 10.9203V3.05859C6.61113 2.96521 6.58728 2.87749 6.54226 2.8049C5.43607 1.02345 3.31033 0.752781 2.14158 0.750047Z"/>
<path d="M12.3581 8.76321V1.25098C12.3581 1.11655 12.3057 0.990263 12.2106 0.895421C12.1166 0.801616 11.992 0.75 11.8597 0.75C11.8593 0.75 11.8588 0.75 11.8585 0.75C10.6898 0.752781 8.56402 1.02345 7.45778 2.8049C7.41277 2.87749 7.38896 2.96521 7.38896 3.05859V10.9203C8.73674 9.50983 10.6904 9.26679 11.8565 9.26401C12.1331 9.2633 12.3581 9.03864 12.3581 8.76321Z"/>
<path d="M13.4991 2.48247H13.1359V8.76321C13.1359 9.46656 12.5628 10.0401 11.8584 10.0418C10.8693 10.0442 9.23838 10.2376 8.08335 11.3308C10.081 10.8417 12.1868 11.1596 13.387 11.4331C13.5368 11.4672 13.6917 11.432 13.8117 11.3363C13.9314 11.2408 14 11.0982 14 10.945V2.98336C14 2.70718 13.7753 2.48247 13.4991 2.48247Z"/>
<path d="M0.864138 8.76321V2.48247H0.500891C0.224755 2.48247 0 2.70718 0 2.98336V10.9449C0 11.0981 0.0686332 11.2407 0.18827 11.3362C0.308237 11.4318 0.462944 11.4672 0.613032 11.433C1.81317 11.1594 3.91907 10.8415 5.9166 11.3306C4.76162 10.2375 3.13073 10.0441 2.14163 10.0418C1.43724 10.0401 0.864138 9.46656 0.864138 8.76321Z"/>
</svg>
