<svg viewBox="0 0 26 25" fill="none" xmlns="http://www.w3.org/2000/svg">
  <path d="M25.5235 13.3815C25.4665 13.3253 25.4018 13.2777 25.3313 13.2399C25.311 13.2283 25.2903 13.2176 25.2691 13.2077L8.19336 4.37233L8.19106 4.37463C8.03671 4.30417 7.86452 4.2825 7.69753 4.31253C7.53053 4.34255 7.37668 4.42284 7.25654 4.54266C7.15557 4.64406 7.08241 4.76975 7.04411 4.90763C7.00581 5.0455 7.00366 5.19092 7.03787 5.32987L7.85155 12.3906L21.8383 13.9707L7.85155 15.5509L7.03787 22.607C7.00282 22.7467 7.00454 22.893 7.04286 23.0317C7.08118 23.1705 7.1548 23.297 7.25654 23.3988C7.37668 23.5187 7.53053 23.5989 7.69752 23.629C7.86452 23.659 8.03671 23.6373 8.19106 23.5669L8.19336 23.5692L25.2841 14.7257C25.3001 14.7182 25.3158 14.7101 25.3313 14.7016C25.4018 14.6638 25.4665 14.6162 25.5235 14.56C25.6797 14.4037 25.7675 14.1918 25.7675 13.9707C25.7675 13.7497 25.6797 13.5378 25.5235 13.3815Z"/>
</svg>