<svg viewBox="0 0 11 10" xmlns="http://www.w3.org/2000/svg">
<path
  d="M8.5011 4.16624L6.81655 2.47952L8.03417 1.25969L9.71809 2.94579L8.5011 4.16624ZM4.16378 8.51355L2.30297 8.68317L2.46799 6.83309L5.97897 3.31756L7.66414 5.00491L4.16378 8.51355ZM10.6169 2.07521L10.6163 2.07458L8.90488 0.360942C8.44171 -0.101578 7.64601 -0.123483 7.20721 0.317757L1.58415 5.9481C1.38037 6.15151 1.25411 6.42189 1.22786 6.70791L0.990961 9.3178C0.974709 9.50243 1.04034 9.68519 1.1716 9.81662C1.28974 9.93491 1.44913 10 1.61352 10C1.6329 10 1.65165 9.99937 1.6704 9.9975L4.27692 9.76029C4.5632 9.734 4.8326 9.6082 5.03574 9.4048L10.6594 3.77382C11.1145 3.31694 11.0951 2.55462 10.6169 2.07521Z" />
</svg>
