<svg viewBox="0 0 16 16" xmlns="http://www.w3.org/2000/svg">
<path fill-rule="evenodd" clip-rule="evenodd" d="M4.40016 2.66671C3.44416 2.66671 2.66683 3.44404 2.66683 4.40004C2.66683 9.32537 6.67416 13.3334 11.6002 13.3334C12.5555 13.3334 13.3335 12.556 13.3335 11.6C13.3335 11.526 13.3288 11.4534 13.3195 11.3814L10.2395 10.6747C10.1782 10.792 10.1108 10.9194 10.0495 11.038C9.7455 11.618 9.5255 12.0394 8.96416 11.8134C6.76016 11.04 4.96083 9.24004 4.1775 7.00937C3.9395 6.48604 4.39283 6.24871 4.9675 5.94871C5.08416 5.88737 5.21016 5.82137 5.3255 5.76137L4.61883 2.68071C4.54483 2.67137 4.47283 2.66671 4.40016 2.66671ZM11.6002 14.6667C5.93883 14.6667 1.3335 10.0614 1.3335 4.40004C1.3335 2.70871 2.70883 1.33337 4.40016 1.33337C4.5735 1.33337 4.74483 1.34804 4.91083 1.37671C5.07283 1.40271 5.2355 1.44404 5.39416 1.49871C5.61083 1.57404 5.77416 1.75604 5.8255 1.98004L6.73816 5.95604C6.78883 6.17471 6.7255 6.40404 6.5695 6.56671C6.47883 6.66137 6.47683 6.66337 5.65016 7.09604C6.3195 8.54537 7.48283 9.70471 8.90283 10.3514C9.33616 9.52404 9.33883 9.52137 9.4335 9.43071C9.59616 9.27471 9.82683 9.21404 10.0442 9.26204L14.0208 10.1747C14.2442 10.226 14.4262 10.3887 14.5008 10.6054C14.5555 10.7627 14.5968 10.9254 14.6242 11.0927C14.6522 11.2574 14.6668 11.428 14.6668 11.6C14.6668 13.2914 13.2908 14.6667 11.6002 14.6667Z" />
</svg>
