<svg viewBox="0 0 18 16" xmlns="http://www.w3.org/2000/svg">
<path fill-rule="evenodd" clip-rule="evenodd" d="M15.6667 11.6108C15.6667 11.9175 15.4292 12.1667 15.1359 12.1667H14.4167V10.5C14.4167 9.58083 13.6692 8.83333 12.7501 8.83333H5.25008C4.33091 8.83333 3.58341 9.58083 3.58341 10.5V12.1667H2.86425C2.57091 12.1667 2.33341 11.9175 2.33341 11.6108V6.05583C2.33341 5.74917 2.57091 5.5 2.86425 5.5H4.00008H5.66675H12.3334H14.0001H15.1359C15.4292 5.5 15.6667 5.74917 15.6667 6.05583V11.6108ZM5.25008 13.8333V10.5H12.7501L12.7517 13.8333H5.25008ZM5.67841 2.16667H12.3334V3.83333H5.67258L5.67841 2.16667ZM15.1359 3.83333H14.0001V2.16667C14.0001 1.2475 13.3151 0.5 12.4726 0.5H5.52758C4.68508 0.5 4.00008 1.2475 4.00008 2.16667V3.83333H2.86425C1.65258 3.83333 0.666748 4.83 0.666748 6.05583V11.6108C0.666748 12.8367 1.65258 13.8333 2.86425 13.8333H3.58341C3.58341 14.7525 4.33091 15.5 5.25008 15.5H12.7501C13.6692 15.5 14.4167 14.7525 14.4167 13.8333H15.1359C16.3476 13.8333 17.3334 12.8367 17.3334 11.6108V6.05583C17.3334 4.83 16.3476 3.83333 15.1359 3.83333Z" />
</svg>
