<svg viewBox="0 0 16 15" xmlns="http://www.w3.org/2000/svg">
<path fill-rule="evenodd" clip-rule="evenodd" d="M12.1667 4.66699H1.33335C0.873354 4.66699 0.500021 4.29449 0.500021 3.83365C0.500021 3.37282 0.873354 3.00032 1.33335 3.00032H12.235L10.9367 1.99199C10.5734 1.70949 10.5075 1.18532 10.79 0.82282C11.0725 0.458653 11.5967 0.39282 11.9592 0.67532L15.1775 3.17532C15.3834 3.33449 15.5017 3.58032 15.5 3.84115C15.4984 4.10032 15.375 4.34449 15.1667 4.50032L11.8334 7.00032C11.6834 7.11282 11.5075 7.16699 11.3342 7.16699C11.0809 7.16699 10.83 7.05199 10.6667 6.83365C10.3909 6.46532 10.465 5.94282 10.8334 5.66699L12.1667 4.66699ZM3.83335 10.5003H14.6667C15.1267 10.5003 15.5 10.8728 15.5 11.3337C15.5 11.7945 15.1267 12.167 14.6667 12.167H3.76502L5.06335 13.1753C5.42668 13.4578 5.49252 13.982 5.21002 14.3445C5.04585 14.5562 4.80002 14.667 4.55168 14.667C4.37252 14.667 4.19252 14.6103 4.04085 14.492L0.822517 11.992C0.616684 11.8328 0.498351 11.587 0.500017 11.3262C0.501684 11.067 0.625017 10.8228 0.833351 10.667L4.16668 8.16699C4.53585 7.89115 5.05752 7.96532 5.33335 8.33365C5.60918 8.70199 5.53502 9.22449 5.16668 9.50032L3.83335 10.5003Z"/>
</svg>
