<svg viewBox="0 0 10 9" xmlns="http://www.w3.org/2000/svg">
  <path
    d="M9.94026 3.75117C9.9547 3.73709 9.9547 3.70893 9.96915 3.69485C9.96915 3.68077 9.9836 3.66669 9.9836 3.63852C9.9836 3.61036 9.99805 3.59628 9.99805 3.56812V3.55404C9.99805 3.53996 9.99805 3.52587 9.99805 3.51179C9.99805 3.48363 9.99805 3.46955 9.99805 3.44139C9.99805 3.42731 9.99805 3.39914 9.99805 3.38506C9.99805 3.3569 9.99805 3.34282 9.9836 3.32874C9.9836 3.31466 9.96915 3.28649 9.96915 3.27241C9.96915 3.25833 9.9547 3.23017 9.94026 3.21609C9.92581 3.20201 9.92581 3.17384 9.91136 3.15976C9.89691 3.14568 9.89691 3.1316 9.88247 3.10344C9.86802 3.08936 9.85357 3.07528 9.83912 3.04711C9.82467 3.03303 9.82467 3.03303 9.82467 3.01895L7.65752 0.822283C7.41191 0.568822 6.99293 0.554741 6.73287 0.808202C6.47281 1.04758 6.45836 1.45594 6.71842 1.7094L7.74421 2.75141C6.2272 2.73733 4.04559 2.9063 2.68751 3.90607C0.852653 5.24378 0.101372 6.97577 0.000238099 8.06002C-0.0286573 8.41205 0.231401 8.72184 0.592594 8.75C0.607042 8.75 0.635937 8.75 0.650385 8.75C0.982682 8.75 1.27164 8.49654 1.30053 8.17267C1.30053 8.10226 1.4739 6.38436 3.46769 4.93399C4.53682 4.14545 6.5017 4.00464 7.93203 4.0328L6.71842 5.27194C6.47281 5.5254 6.47281 5.91968 6.73287 6.17314C6.8629 6.28579 7.02182 6.3562 7.18075 6.3562C7.35412 6.3562 7.52749 6.28579 7.64307 6.15906L9.82467 3.92015C9.82467 3.92015 9.82467 3.92015 9.82467 3.90607C9.83912 3.89199 9.85357 3.86382 9.86802 3.84974C9.88247 3.83566 9.88247 3.82158 9.89691 3.8075C9.92581 3.79342 9.94026 3.77934 9.94026 3.75117Z"
  />
</svg>
