<svg viewBox="0 0 14 14" xmlns="http://www.w3.org/2000/svg">
<path fill-rule="evenodd" clip-rule="evenodd" d="M3.80467 5.47149C3.544 5.73216 3.12267 5.73216 2.862 5.47149L0.862004 3.47149C0.601337 3.21083 0.601337 2.78949 0.862004 2.52883L2.862 0.528827C2.992 0.398827 3.16267 0.333493 3.33334 0.333493C3.504 0.333493 3.67467 0.398827 3.80467 0.528827C4.06534 0.789494 4.06534 1.21083 3.80467 1.47149L2.94267 2.33349H10.94C12.26 2.33349 13.3333 3.38883 13.3333 4.68616V6.33349C13.3333 6.70216 13.0353 7.00016 12.6667 7.00016C12.298 7.00016 12 6.70216 12 6.33349V4.68616C12 4.12416 11.5247 3.66683 10.94 3.66683H2.94267L3.80467 4.52883C4.06534 4.78949 4.06534 5.21083 3.80467 5.47149ZM11.0572 11.6668H3.05989C1.74055 11.6668 0.666554 10.6115 0.666554 9.31416L0.666554 7.66683C0.666554 7.29816 0.964554 7.00016 1.33322 7.00016C1.70189 7.00016 1.99989 7.29816 1.99989 7.66683L1.99989 9.31416C1.99989 9.87549 2.47522 10.3335 3.05989 10.3335H11.0572L10.1952 9.47149C9.93522 9.21083 9.93522 8.78949 10.1952 8.52883C10.3252 8.39883 10.4959 8.33349 10.6666 8.33349C10.8372 8.33349 11.0079 8.39883 11.1379 8.52883L13.1379 10.5288C13.3986 10.7895 13.3986 11.2108 13.1379 11.4715L11.1379 13.4715C10.8779 13.7322 10.4559 13.7322 10.1952 13.4715C9.93522 13.2108 9.93522 12.7895 10.1952 12.5288L11.0572 11.6668Z"/>
</svg>
