<svg viewBox="0 0 10 10" xmlns="http://www.w3.org/2000/svg">
  <path
    d="M9.59322 1.57434C9.27158 1.44315 8.90799 1.6035 8.78213 1.93878L8.69823 2.17201C7.80324 0.860058 6.3209 0 4.79661 0C2.15358 0 0 2.2449 0 5C0 7.7551 2.15358 10 4.79661 10C6.82433 10 8.64229 8.65889 9.31354 6.67638C9.42541 6.34111 9.2576 5.9621 8.93596 5.84548C8.61432 5.72886 8.25073 5.90379 8.13886 6.23907C7.63542 7.71137 6.30692 8.68805 4.8106 8.68805C2.86678 8.68805 1.27257 7.04082 1.27257 5C1.27257 2.95918 2.85279 1.31195 4.8106 1.31195C5.7895 1.31195 6.75441 1.80758 7.42566 2.58017C7.10402 2.46356 6.74043 2.63848 6.62855 2.98834C6.51668 3.32362 6.68449 3.70262 7.02011 3.81924L8.57237 4.38775C8.64229 4.41691 8.71221 4.43149 8.78213 4.43149C9.03385 4.43149 9.27159 4.27114 9.36948 4.02332L9.9708 2.4344C10.0687 2.08455 9.91486 1.70554 9.59322 1.57434Z"
  />
</svg>
