<svg viewBox="0 0 14 18" xmlns="http://www.w3.org/2000/svg">
<path fill-rule="evenodd" clip-rule="evenodd" d="M6.99991 10.6666H4.49991C4.03991 10.6666 3.66658 10.2933 3.66658 9.83329C3.66658 9.37329 4.03991 8.99996 4.49991 8.99996H6.99991C7.45991 8.99996 7.83325 9.37329 7.83325 9.83329C7.83325 10.2933 7.45991 10.6666 6.99991 10.6666ZM3.66658 13.1666C3.66658 12.7066 4.03991 12.3333 4.49991 12.3333H9.49991C9.96075 12.3333 10.3332 12.7066 10.3332 13.1666C10.3332 13.6266 9.96075 14 9.49991 14H4.49991C4.03991 14 3.66658 13.6266 3.66658 13.1666ZM11.5368 15.6666H2.46266C2.20766 15.6666 2.00016 15.48 2.00016 15.25V2.74996C2.00016 2.51996 2.20766 2.33329 2.46266 2.33329H7.00016V4.95829C7.00016 6.26829 8.01433 7.33329 9.26183 7.33329H12.0002V15.25C12.0002 15.48 11.7927 15.6666 11.5368 15.6666ZM8.66683 3.14829L10.9518 5.66663H9.26183C8.9335 5.66663 8.66683 5.34913 8.66683 4.95829V3.14829ZM13.4502 5.93996L8.9135 0.939959C8.75516 0.765793 8.53183 0.666626 8.296 0.666626H2.46266C1.2885 0.666626 0.333496 1.60163 0.333496 2.74996V15.25C0.333496 16.3983 1.2885 17.3333 2.46266 17.3333H11.5368C12.711 17.3333 13.6668 16.3983 13.6668 15.25V6.49996C13.6668 6.29246 13.5893 6.09329 13.4502 5.93996Z" />
</svg>
