<svg viewBox="0 0 8 8" xmlns="http://www.w3.org/2000/svg">
<path d="M8 5.52527L7.38762 6.52986L5.18567 5.317C5.02932 5.22716 4.88599 5.13732 4.7557 5.04747C4.62541 4.94946 4.51249 4.83512 4.41694 4.70444C4.54723 4.9903 4.61238 5.29658 4.61238 5.62328V8H3.37459V5.63553C3.37459 5.47218 3.38328 5.32108 3.40065 5.18224C3.42671 5.03522 3.47448 4.89229 3.54397 4.75345C3.44843 4.86779 3.33985 4.96988 3.21824 5.05972C3.09663 5.14957 2.962 5.23532 2.81433 5.317L0.625407 6.51761L0.0130292 5.51302L2.20195 4.3124C2.35831 4.23073 2.51031 4.16539 2.65798 4.11639C2.80565 4.05921 2.962 4.02246 3.12704 4.00613C2.79696 3.96529 2.4886 3.85911 2.20195 3.6876L0 2.47473L0.612378 1.47014L2.81433 2.683C2.97068 2.77284 3.10966 2.86677 3.23127 2.96478C3.36156 3.06279 3.47448 3.17713 3.57003 3.30781C3.50054 3.16896 3.44843 3.02195 3.41368 2.86677C3.38762 2.71159 3.37459 2.55232 3.37459 2.38897V0H4.61238V2.36447C4.61238 2.52782 4.59935 2.68709 4.57329 2.84227C4.55592 2.98928 4.51683 3.13221 4.45603 3.27106C4.55157 3.14854 4.66015 3.04237 4.78176 2.95253C4.90337 2.86269 5.038 2.77284 5.18567 2.683L7.37459 1.49464L7.98697 2.49923L5.79805 3.6876C5.65038 3.76927 5.50271 3.83869 5.35505 3.89586C5.21607 3.95304 5.0684 3.98979 4.91205 4.00613C5.20738 4.03879 5.50271 4.14089 5.79805 4.3124L8 5.52527Z"/>
</svg>
