<svg viewBox="0 0 26 26" xmlns="http://www.w3.org/2000/svg">
    <path
        d="M17 13C17 12.4477 16.5523 12 16 12H10C9.44772 12 9 12.4477 9 13C9 13.5523 9.44772 14 10 14H16C16.5523 14 17 13.5523 17 13Z"
    />
    <path
        d="M13 24.5C6.64873 24.5 1.5 19.3513 1.5 13H0.5C0.5 19.9036 6.09644 25.5 13 25.5V24.5ZM24.5 13C24.5 19.3513 19.3513 24.5 13 24.5V25.5C19.9036 25.5 25.5 19.9036 25.5 13H24.5ZM13 1.5C19.3513 1.5 24.5 6.64873 24.5 13H25.5C25.5 6.09644 19.9036 0.5 13 0.5V1.5ZM13 0.5C6.09644 0.5 0.5 6.09644 0.5 13H1.5C1.5 6.64873 6.64873 1.5 13 1.5V0.5Z"
    />
</svg>
