<svg viewBox="0 0 24 24"
  xmlns="http://www.w3.org/2000/svg">
  <path d="M14.25 3H8.5C7.395 3 6.5 3.895 6.5 5V12H5C4.448 12 4 12.448 4 13C4 13.552 4.448 14 5 14H6.5V15.625H5C4.448 15.625 4 16.073 4 16.625C4 17.177 4.448 17.625 5 17.625H6.5V19.75C6.5 20.44 7.06 21 7.75 21C8.44 21 9 20.44 9 19.75V17.625H12C12.552 17.625 13 17.177 13 16.625C13 16.073 12.552 15.625 12 15.625H9V14C9 14 13.984 14 14.25 14C17.426 14 20 11.538 20 8.5C20 5.462 17.426 3 14.25 3ZM9 5H14.125C16.058 5 17.625 6.567 17.625 8.5C17.625 10.433 16.058 12 14.125 12H9V5Z" fill="currentColor"/>
</svg>
