<svg viewBox="0 0 14 14" xmlns="http://www.w3.org/2000/svg">
<path fill-rule="evenodd" clip-rule="evenodd" d="M1.20397 4.73544L6.12148 2.05211C6.47148 1.86544 6.89148 1.86544 7.24148 2.05211L12.7948 5.07961C12.9815 5.18461 13.0981 5.37711 13.0981 5.59294V9.33211C13.0981 9.65294 12.8356 9.91544 12.5148 9.91544C12.194 9.91544 11.9315 9.65294 11.9315 9.33211V5.88461L7.24148 8.44544C6.89148 8.63794 6.47148 8.63794 6.12148 8.44544L1.20397 5.76211C0.801475 5.54044 0.801475 4.95711 1.20397 4.73544ZM2.59814 9.32628V7.68711L6.12147 9.61211C6.47147 9.80461 6.89147 9.80461 7.24147 9.61211L10.7648 7.68711V9.32628C10.7648 9.75211 10.5315 10.1488 10.1581 10.3529L7.24147 11.9454C6.89147 12.1379 6.47147 12.1379 6.12147 11.9454L3.20481 10.3529C2.83147 10.1488 2.59814 9.75211 2.59814 9.32628Z" />
</svg>
