<svg viewBox="0 0 12 12" xmlns="http://www.w3.org/2000/svg">
<path d="M5.99998 4.12523C4.95795 4.12523 4.11022 4.96635 4.11022 6.00023C4.11022 7.0341 4.95797 7.87523 5.99998 7.87523C7.042 7.87523 7.88974 7.0341 7.88974 6.00023C7.88974 4.96635 7.04202 4.12523 5.99998 4.12523ZM5.99998 6.93773C5.47898 6.93773 5.0551 6.51716 5.0551 6.00023C5.0551 5.48329 5.47898 5.06273 5.99998 5.06273C6.52099 5.06273 6.94486 5.48329 6.94486 6.00023C6.94486 6.51716 6.52099 6.93773 5.99998 6.93773Z"/>
<path d="M11.8149 7.39774L10.5915 6.46767C10.6259 6.14599 10.6238 5.83439 10.5915 5.53235L11.8149 4.60228C12.0045 4.45809 12.0558 4.19611 11.9344 3.99195L10.7497 2.00027C10.6317 1.80185 10.3858 1.71795 10.1697 1.80239L8.71824 2.36958C8.45316 2.18135 8.16943 2.02186 7.87012 1.89284L7.65223 0.401508C7.61855 0.171 7.41941 0 7.18468 0H4.8153C4.58057 0 4.38144 0.171 4.34778 0.401531L4.12989 1.89286C3.83057 2.02191 3.54685 2.18137 3.28176 2.3696L1.83031 1.80241C1.61417 1.71795 1.36834 1.80187 1.25032 2.0003L0.0656082 3.99195C-0.0558324 4.19611 -0.00452542 4.45809 0.185112 4.60228L1.40847 5.53233C1.37408 5.85401 1.37618 6.16561 1.40847 6.46765L0.185135 7.39772C-0.00452545 7.54191 -0.0558324 7.80389 0.0656318 8.00805L1.2503 9.99973C1.36831 10.1981 1.61417 10.2821 1.83029 10.1976L3.28176 9.63045C3.5468 9.81863 3.83055 9.97814 4.12986 10.1072L4.34775 11.5985C4.38144 11.829 4.58057 12 4.8153 12H7.18468C7.41941 12 7.61855 11.829 7.65223 11.5985L7.87012 10.1072C8.16943 9.97816 8.45318 9.81867 8.71822 9.63047L10.1697 10.1976C10.3858 10.2821 10.6317 10.1981 10.7497 9.99975L11.9344 8.00808C12.0558 7.80391 12.0045 7.54193 11.8149 7.39774ZM10.1409 9.17873L8.81691 8.6614C8.65827 8.59945 8.47846 8.62702 8.34613 8.73352C8.02669 8.9907 7.66813 9.19188 7.28045 9.33152C7.11679 9.39047 6.99911 9.53393 6.97411 9.70488L6.77578 11.0625H5.22417L5.02587 9.70488C5.00088 9.53393 4.88319 9.39047 4.71954 9.33152C4.33186 9.19186 3.9733 8.99067 3.65386 8.73352C3.52153 8.62702 3.34162 8.59945 3.18307 8.6614L1.85913 9.17873L1.0921 7.88923L2.20139 7.04585C2.34081 6.93984 2.40948 6.76587 2.37962 6.59412C2.31007 6.19392 2.31237 5.79286 2.37962 5.40586C2.40948 5.23411 2.34081 5.06011 2.20139 4.95413L1.0921 4.11075L1.85913 2.82124L3.18307 3.33858C3.34169 3.40057 3.52153 3.37296 3.65386 3.26646C3.97332 3.0093 4.33188 2.80812 4.71954 2.66848C4.88319 2.60953 5.00088 2.46607 5.02587 2.29512L5.2242 0.9375H6.77581L6.97411 2.29512C6.99911 2.46607 7.11679 2.60953 7.28045 2.66848C7.66811 2.80812 8.02666 3.0093 8.34613 3.26646C8.47846 3.37298 8.65834 3.40055 8.81691 3.33858L10.1409 2.82124L10.9079 4.11075L9.79857 4.95413C9.65915 5.06013 9.59048 5.23411 9.62034 5.40586C9.68989 5.80605 9.68759 6.20712 9.62034 6.59412C9.59048 6.76587 9.65915 6.93987 9.79857 7.04585L10.9079 7.88923L10.1409 9.17873Z" />
</svg>
