<svg width="24" height="25" viewBox="0 0 24 25" fill="none" xmlns="http://www.w3.org/2000/svg">
    <path fill-rule="evenodd" clip-rule="evenodd"
          d="M9.54565 3.60264L5.8124 5.00043C4.11252 5.63689 3.05428 7.33817 3.23481 9.14429L3.64457 13.2437C3.90236 15.8229 5.25961 18.1657 7.3688 19.6722L9.09396 20.9045C10.8325 22.1463 13.1679 22.1463 14.9063 20.9045L16.6315 19.6722C18.7407 18.1657 20.0979 15.8229 20.3557 13.2437L20.7655 9.14429C20.946 7.33817 19.8878 5.63689 18.1879 5.00043L14.4547 3.60264C12.872 3.01006 11.1283 3.01006 9.54565 3.60264ZM13.7534 5.47566L17.4866 6.87345C18.3366 7.19168 18.8657 8.04231 18.7754 8.94538L18.3657 13.0448C18.1652 15.0508 17.1095 16.873 15.469 18.0448L13.7439 19.277C12.7008 20.0221 11.2995 20.0221 10.2564 19.277L8.53127 18.0448C6.89079 16.873 5.83516 15.0508 5.63465 13.0448L5.2249 8.94538C5.13463 8.04231 5.66375 7.19168 6.51369 6.87345L10.2469 5.47566C11.3774 5.05238 12.6229 5.05238 13.7534 5.47566Z"
          fill="#17335D"/>
    <g opacity="0.5">
        <path fill-rule="evenodd" clip-rule="evenodd"
              d="M14.2929 10.0448C14.6834 9.65432 15.3166 9.65432 15.7071 10.0448C16.0676 10.4053 16.0953 10.9726 15.7903 11.3649L15.7071 11.4591L11.7071 15.4591C11.3466 15.8195 10.7794 15.8473 10.3871 15.5422L10.2929 15.4591L8.29289 13.4591C7.90237 13.0685 7.90237 12.4354 8.29289 12.0448C8.65338 11.6844 9.22061 11.6566 9.6129 11.9617L9.70711 12.0448L11 13.337L14.2929 10.0448Z"
              fill="#17335D"/>
    </g>
</svg>
