<svg viewBox="0 0 16 16" xmlns="http://www.w3.org/2000/svg">
<path fill-rule="evenodd" clip-rule="evenodd" d="M8.00033 10.7114C8.10104 10.7114 8.20176 10.7349 8.29361 10.7813L10.681 12L10.2269 9.42839C10.1907 9.22672 10.2598 9.02134 10.4105 8.87844L12.3337 7.06217L9.67133 6.68358C9.46546 6.6545 9.28747 6.52892 9.19498 6.34705L8.00033 4L6.80567 6.34705C6.71318 6.52892 6.53519 6.6545 6.32932 6.68358L3.66699 7.06217L5.5901 8.87844C5.74086 9.02134 5.80991 9.22672 5.7738 9.42839L5.31963 12L7.70704 10.7813C7.79889 10.7349 7.89961 10.7114 8.00033 10.7114ZM11.5231 13.9998C11.4224 13.9998 11.3217 13.9764 11.2298 13.9283L8.00033 12.2418L4.77081 13.9283C4.55674 14.0397 4.29832 14.02 4.10515 13.8782C3.91007 13.7364 3.81317 13.4965 3.8537 13.2591L4.46933 9.6962L1.85988 7.17343C1.68571 7.00566 1.62364 6.7537 1.69774 6.5239C1.77121 6.2941 1.97009 6.12697 2.20886 6.09215L5.81966 5.56797L7.43283 2.32286C7.64691 1.89238 8.35374 1.89238 8.56782 2.32286L10.181 5.56797L13.7918 6.09215C14.0306 6.12697 14.2294 6.2941 14.3029 6.5239C14.377 6.7537 14.3149 7.00566 14.1408 7.17343L11.5313 9.6962L12.1469 13.2591C12.1875 13.4965 12.0906 13.7364 11.8955 13.8782C11.7859 13.9593 11.6548 13.9998 11.5231 13.9998Z" />
</svg>
