<svg viewBox="0 0 24 24"
  xmlns="http://www.w3.org/2000/svg">
  <g id=" star">
    <path id="Icon" d="M17.2835 21C17.1334 21 16.9823 20.9649 16.8436 20.8927L11.9995 18.3629L7.15637 20.8927C6.83526 21.0589 6.44766 21.0304 6.15695 20.8177C5.86435 20.605 5.719 20.2451 5.78075 19.8889L6.70321 14.5445L2.78916 10.7603C2.52886 10.5086 2.43481 10.1307 2.54596 9.78502C2.65711 9.44126 2.95447 9.18961 3.31357 9.13833L8.72864 8.35204L11.1493 3.4843C11.4704 2.83857 12.5296 2.83857 12.8507 3.4843L15.2714 8.35204L20.6864 9.13833C21.0455 9.18961 21.3429 9.44126 21.454 9.78502C21.5652 10.1307 21.4711 10.5086 21.2108 10.7603L17.2968 14.5445L18.2193 19.8889C18.281 20.2451 18.1347 20.605 17.843 20.8177C17.6777 20.9392 17.4811 21 17.2835 21Z" />
  </g>
</svg>
