<svg viewBox="0 0 14 18" xmlns="http://www.w3.org/2000/svg">
<path fill-rule="evenodd" clip-rule="evenodd" d="M6.98567 5.10194L2.30484 9.78277L2.08484 12.2461L4.56567 12.0203L9.23234 7.3486L6.98567 5.10194ZM11.9715 4.60694L9.72567 2.36194L8.10234 3.98527L10.3482 6.23194L11.9715 4.60694ZM1.24234 13.9961C1.21651 13.9986 1.19151 13.9994 1.16651 13.9994C0.946507 13.9994 0.734007 13.9128 0.577341 13.7553C0.402341 13.5803 0.314007 13.3369 0.336507 13.0911L0.652341 9.61527C0.687341 9.23444 0.855674 8.87527 1.12651 8.60444L8.62317 1.10694C9.20817 0.520271 10.2698 0.549438 10.8865 1.16527L13.1682 3.44694H13.169C13.8073 4.0861 13.8323 5.10027 13.2257 5.7086L5.72817 13.2061C5.45734 13.4778 5.09901 13.6453 4.71734 13.6803L1.24234 13.9961ZM1.16634 15.6662H12.833C13.2913 15.6662 13.6663 16.0412 13.6663 16.4995C13.6663 16.9579 13.2913 17.3329 12.833 17.3329H1.16634C0.708008 17.3329 0.333008 16.9579 0.333008 16.4995C0.333008 16.0412 0.708008 15.6662 1.16634 15.6662Z"/>
</svg>
