<svg viewBox="0 0 16 16" xmlns="http://www.w3.org/2000/svg">
<path fill-rule="evenodd" clip-rule="evenodd"
      d="M6.28983 11.5443C6.86262 11.9447 7.41494 12.1448 7.97604 12.1448C8.53129 12.1448 9.09531 11.9507 9.70024 11.5594L12.1717 9.97213V13.3174C11.8565 13.6979 10.2128 14.4834 8.00438 14.4834C5.80088 14.4834 4.16098 13.7034 3.84035 13.3215V9.97169L6.28983 11.5443ZM13.6329 13.4209L13.6329 13.4248C13.6329 14.8989 10.6608 16 8.00438 16C5.34794 16 2.37589 14.8989 2.37589 13.4248C2.37589 13.4004 2.377 13.3763 2.37917 13.3525V9.08434C2.37917 9.06763 2.37969 9.05104 2.38072 9.03459L1.47288 8.45175V9.47257C1.47288 9.89115 1.14557 10.2309 0.742282 10.2309C0.338994 10.2309 0.0116882 9.89115 0.0116882 9.47257V6.2665C0.0116882 6.24569 0.0124976 6.22507 0.0140854 6.20468C-0.00169386 5.90099 0.0328688 5.59571 0.117773 5.29897C0.278504 4.74087 0.646723 4.23433 1.16106 3.87338C1.16983 3.86731 1.1786 3.86125 1.18444 3.85821L6.31321 0.567218C7.50846 -0.194109 8.62481 -0.188042 9.72654 0.582384L14.829 3.85821C15.3667 4.23433 15.7379 4.74087 15.8957 5.29897C16.0389 5.79945 16.0389 6.32419 15.8957 6.82466C15.7349 7.38276 15.3667 7.8893 14.8524 8.25025C14.8436 8.25632 14.8349 8.26238 14.829 8.26542L13.6313 9.03465C13.6323 9.05108 13.6329 9.06765 13.6329 9.08434V13.4209ZM7.08179 10.2703L1.97056 6.98542C1.74261 6.82466 1.58481 6.61537 1.52051 6.39698C1.45914 6.17859 1.45914 5.9511 1.52051 5.73272C1.58481 5.51433 1.74261 5.30504 1.97056 5.14125L7.07887 1.85632C7.78609 1.40741 8.28289 1.40134 8.93166 1.85632L14.037 5.13215C14.2679 5.29594 14.4316 5.50826 14.4959 5.72968C14.5572 5.94807 14.5572 6.17556 14.4959 6.39395C14.4316 6.61234 14.2738 6.82163 14.0458 6.98542L8.93166 10.2703C8.19522 10.7466 7.76855 10.7496 7.08179 10.2703ZM1.48457 11.6625C1.48457 12.088 1.15223 12.4329 0.742283 12.4329C0.332331 12.4329 0 12.088 0 11.6625C0 11.237 0.332331 10.8921 0.742283 10.8921C1.15223 10.8921 1.48457 11.237 1.48457 11.6625Z" />
</svg>
