<svg width="16" height="16" viewBox="0 0 16 16" fill="none" xmlns="http://www.w3.org/2000/svg">
<path fill-rule="evenodd" clip-rule="evenodd" d="M10.5 13.8333V10.5H13.8333L13.8342 13.8333H10.5ZM13.8333 8.83333H10.5C9.58083 8.83333 8.83333 9.58083 8.83333 10.5V13.8333C8.83333 14.7525 9.58083 15.5 10.5 15.5H13.8333C14.7525 15.5 15.5 14.7525 15.5 13.8333V10.5C15.5 9.58083 14.7525 8.83333 13.8333 8.83333ZM2.16667 13.8333V10.5H5.5L5.50083 13.8333H2.16667ZM5.5 8.83333H2.16667C1.2475 8.83333 0.5 9.58083 0.5 10.5V13.8333C0.5 14.7525 1.2475 15.5 2.16667 15.5H5.5C6.41917 15.5 7.16667 14.7525 7.16667 13.8333V10.5C7.16667 9.58083 6.41917 8.83333 5.5 8.83333ZM10.5 5.5V2.16667H13.8333L13.8342 5.5H10.5ZM13.8333 0.5H10.5C9.58083 0.5 8.83333 1.2475 8.83333 2.16667V5.5C8.83333 6.41917 9.58083 7.16667 10.5 7.16667H13.8333C14.7525 7.16667 15.5 6.41917 15.5 5.5V2.16667C15.5 1.2475 14.7525 0.5 13.8333 0.5ZM2.16667 5.5V2.16667H5.5L5.50083 5.5H2.16667ZM5.5 0.5H2.16667C1.2475 0.5 0.5 1.2475 0.5 2.16667V5.5C0.5 6.41917 1.2475 7.16667 2.16667 7.16667H5.5C6.41917 7.16667 7.16667 6.41917 7.16667 5.5V2.16667C7.16667 1.2475 6.41917 0.5 5.5 0.5Z" fill="#7B819B"/>
</svg>
