<svg viewBox="0 0 14 16" xmlns="http://www.w3.org/2000/svg">
<path fill-rule="evenodd" clip-rule="evenodd" d="M7.00033 9.6H4.60033C4.15873 9.6 3.80033 9.2416 3.80033 8.8C3.80033 8.3584 4.15873 8 4.60033 8H7.00033C7.44193 8 7.80033 8.3584 7.80033 8.8C7.80033 9.2416 7.44193 9.6 7.00033 9.6ZM4.60033 11.2H9.40033C9.84273 11.2 10.2003 11.5584 10.2003 12C10.2003 12.4416 9.84273 12.8 9.40033 12.8H4.60033C4.15873 12.8 3.80033 12.4416 3.80033 12C3.80033 11.5584 4.15873 11.2 4.60033 11.2ZM11.3558 14.4H2.64458C2.39978 14.4 2.20058 14.2208 2.20058 14V1.99999C2.20058 1.77919 2.39978 1.59999 2.64458 1.59999H7.00058V4.11999C7.00058 5.37759 7.97418 6.39999 9.17178 6.39999H11.8006V14C11.8006 14.2208 11.6014 14.4 11.3558 14.4ZM8.60059 2.38241L10.7942 4.80001H9.17179C8.85659 4.80001 8.60059 4.49521 8.60059 4.12001V2.38241ZM13.1926 5.0624L8.83739 0.2624C8.68538 0.0952 8.47099 0 8.24459 0H2.64459C1.51739 0 0.600586 0.8976 0.600586 2V14C0.600586 15.1024 1.51739 16 2.64459 16H11.3558C12.483 16 13.4006 15.1024 13.4006 14V5.6C13.4006 5.4008 13.3262 5.2096 13.1926 5.0624Z"/>
</svg>
