<svg viewBox="0 0 20 20" xmlns="http://www.w3.org/2000/svg">
<path d="M16.4614 11.7664L11.5858 11.1838V10.6973C12.9171 10.0619 13.7872 8.70927 13.7872 7.21768V2.76187C13.7872 1.23897 12.5528 0 11.0355 0H8.83405C7.31672 0 6.08227 1.23897 6.08227 2.76187V7.21768C6.08227 8.70927 6.95242 10.0619 8.28369 10.6973V11.1838L3.53859 11.7664C2.03142 12.069 0.9375 13.4082 0.9375 14.9509V20H19.0625V14.9509C19.0625 13.4082 17.9686 12.069 16.4614 11.7664ZM7.18298 2.76187C7.18298 1.84813 7.92365 1.10475 8.83405 1.10475H11.0355C11.9459 1.10475 12.6865 1.84813 12.6865 2.76187V3.35106H10.8075L9.7068 4.45581H7.18298V2.76187ZM9.01838 9.80849C7.92057 9.41678 7.18298 8.37563 7.18298 7.21768V5.56056H10.1627L11.2634 4.45581H12.6865V7.21768C12.6865 8.37563 11.9489 9.41678 10.8511 9.80849L10.4851 9.93911V11.0843H9.3844V9.93911L9.01838 9.80849ZM10.4851 12.189V13.2938H9.3844V12.189H10.4851ZM9.32038 14.3985H10.5491L10.963 18.8953H8.90647L9.32038 14.3985ZM2.03821 14.9509C2.03821 13.933 2.75998 13.0494 3.75447 12.8497L8.28369 12.3104V13.812L7.79736 18.8953H6.08227V17.0356C6.08227 16.7317 5.83587 16.4853 5.53192 16.4853C5.22796 16.4853 4.98156 16.7317 4.98156 17.0356V18.8953H2.03821V14.9509ZM17.9618 18.8953H14.888V17.0356C14.888 16.7317 14.6416 16.4853 14.3376 16.4853C14.0336 16.4853 13.7872 16.7317 13.7872 17.0356V18.8953H12.0722L11.5858 13.812V12.3104L16.2455 12.8497C17.24 13.0494 17.9618 13.933 17.9618 14.9509V18.8953Z" />
</svg>
