<svg viewBox="0 0 20 20" xmlns="http://www.w3.org/2000/svg">
<path d="M7.49977 9.51746C7.49977 8.22512 8.61454 7.17371 9.98477 7.17371C11.355 7.17371 12.4698 8.22512 12.4698 9.51746C12.4698 10.8098 11.355 11.8612 9.98477 11.8612C8.61454 11.8612 7.49977 10.8098 7.49977 9.51746ZM9.98477 10.6893C10.6699 10.6893 11.2273 10.1636 11.2273 9.51746C11.2273 8.87129 10.6699 8.34559 9.98477 8.34559C9.29965 8.34559 8.74227 8.87129 8.74227 9.51746C8.74227 10.1636 9.29965 10.6893 9.98477 10.6893Z" />
<path d="M2.48875 9.375C2.70651 9.375 2.91554 9.41074 3.10999 9.47578V8.20312H1.24625C0.999861 8.20312 0.776794 8.06582 0.677601 7.85313C0.578407 7.64043 0.621853 7.39254 0.788307 7.22125L9.52682 0.19C9.64449 0.0689453 9.81061 0 9.98477 0C10.1589 0 10.325 0.0689453 10.4427 0.19L19.2117 7.22125C19.3782 7.39254 19.4216 7.64043 19.3224 7.85313C19.2232 8.06582 19.0001 8.20312 18.7537 8.20312H16.89V9.47578C17.0845 9.41074 17.2935 9.375 17.5113 9.375C18.5389 9.375 19.375 10.1636 19.375 11.1328V13.4766C19.375 14.8914 18.3061 16.0751 16.89 16.3473V19.4141C16.89 19.7377 16.6118 20 16.2688 20H3.73125C3.38815 20 3.10999 19.7377 3.10999 19.4141V16.3473C1.69388 16.0751 0.625 14.8914 0.625 13.4766V11.1328C0.625 10.1636 1.46108 9.375 2.48875 9.375ZM17.3415 7.03125L9.98477 1.45305L2.65851 7.03125H3.73125C4.07434 7.03125 4.35249 7.29359 4.35249 7.61719V12.8906H15.6475V7.61719C15.6475 7.29359 15.9257 7.03125 16.2688 7.03125H17.3415ZM15.6475 16.4062H13.5057V18.8281H15.6475V16.4062ZM6.43341 18.8281V16.4062H4.35249V18.8281H6.43341ZM1.8675 13.4766C1.8675 14.4458 2.70358 15.2344 3.73125 15.2344H7.05466C7.39776 15.2344 7.67591 15.4967 7.67591 15.8203V18.8281H12.2632V15.8203C12.2632 15.4967 12.5413 15.2344 12.8844 15.2344H16.2688C17.2964 15.2344 18.1325 14.4458 18.1325 13.4766V11.1328C18.1325 10.8097 17.8538 10.5469 17.5113 10.5469C17.1687 10.5469 16.89 10.8097 16.89 11.1328V13.4766C16.89 13.8002 16.6118 14.0625 16.2688 14.0625H3.73125C3.38815 14.0625 3.10999 13.8002 3.10999 13.4766V11.1328C3.10999 10.8097 2.8313 10.5469 2.48875 10.5469C2.14619 10.5469 1.8675 10.8097 1.8675 11.1328V13.4766Z" />
</svg>
