<svg viewBox="0 0 16 16" xmlns="http://www.w3.org/2000/svg">
<path d="M14.1434 4.53334H11.9797C11.8914 4.53334 11.8048 4.55866 11.729 4.6066C11.6532 4.65454 11.5911 4.72332 11.5494 4.8056C11.5494 4.8056 10.6864 6.48614 10.4092 7.05219C9.66352 8.5749 9.18063 8.09687 9.18063 7.39016V4.95343C9.18063 4.74981 9.10414 4.55453 8.96798 4.41055C8.83182 4.26657 8.64714 4.18568 8.45458 4.18568H6.82781C6.60626 4.16826 6.38419 4.21102 6.18268 4.3099C5.98116 4.40878 5.8069 4.56049 5.67643 4.75063C5.67643 4.75063 6.50249 4.60939 6.50249 5.78637C6.50249 6.07822 6.51671 6.91781 6.52966 7.62202C6.5321 7.72579 6.50437 7.82785 6.45022 7.91443C6.39606 8.00101 6.31809 8.06794 6.22683 8.10617C6.13556 8.1444 6.0354 8.1521 5.93987 8.12823C5.84433 8.10436 5.75802 8.05006 5.6926 7.97267C5.02673 6.99337 4.47517 5.9326 4.04991 4.81342C4.01338 4.72969 3.95492 4.65881 3.88144 4.60916C3.80797 4.55952 3.72257 4.53321 3.63538 4.53334C3.16615 4.53334 2.22718 4.53334 1.66956 4.53334C1.61549 4.53295 1.56213 4.54645 1.51408 4.57267C1.46603 4.5989 1.42472 4.63707 1.3937 4.6839C1.36267 4.73074 1.34286 4.78483 1.33597 4.84155C1.32908 4.89826 1.33532 4.9559 1.35414 5.0095C1.95106 6.7409 4.52239 12.1819 7.4573 12.1819H8.69261C8.82204 12.1819 8.94617 12.1275 9.03769 12.0307C9.12922 11.934 9.18063 11.8027 9.18063 11.6658V10.8771C9.18063 10.7781 9.20801 10.6813 9.25939 10.5986C9.31077 10.5159 9.38391 10.4509 9.46979 10.4116C9.55567 10.3724 9.65055 10.3605 9.74273 10.3775C9.8349 10.3946 9.92035 10.4397 9.98855 10.5075L11.4671 11.9765C11.5999 12.1084 11.7753 12.1819 11.9575 12.1819H13.8991C14.8355 12.1819 14.8355 11.4947 14.325 10.963C13.9657 10.5888 12.669 9.14363 12.669 9.14363C12.558 9.02199 12.4918 8.86236 12.4823 8.6936C12.4729 8.52483 12.5208 8.35806 12.6175 8.22341C13.0366 7.64021 13.7221 6.68554 14.0128 6.27656C14.4102 5.71756 15.1294 4.53334 14.1434 4.53334Z" />
</svg>
