<svg viewBox="0 0 24 25" fill="none" xmlns="http://www.w3.org/2000/svg">
    <path fill-rule="evenodd" clip-rule="evenodd"
          d="M13.5585 1.75195H10.4415C9.15023 1.75195 8.00381 2.57824 7.59547 3.80327L7.27924 4.75195H6.5L6.28101 4.7575C3.87335 4.88732 2 6.85847 2 9.25195V11.2434L2.00771 11.4507C2.11307 12.7327 2.97393 13.7845 4.17584 14.1279L7.80223 15.164L8.12508 15.2524C8.36093 15.314 8.58568 15.3671 8.81001 15.4144C9.39044 15.5369 9.94925 15.1301 10.011 14.5401C10.1169 13.5288 10.974 12.752 12 12.752C13.0261 12.752 13.8828 13.5287 13.9879 14.5404C14.0493 15.1317 14.61 15.5391 15.1914 15.415C15.5295 15.3428 15.8652 15.2591 16.1978 15.164L19.8242 14.1279L20.0214 14.0636C21.2251 13.6101 22 12.4934 22 11.2434V9.25195L21.9945 9.03296C21.8646 6.6253 19.8935 4.75195 17.5 4.75195H16.7208L16.4045 3.80327C15.9962 2.57824 14.8498 1.75195 13.5585 1.75195ZM7.97436 6.75164C7.98288 6.75185 7.99142 6.75195 8 6.75195H16C16.0034 6.75195 16.0068 6.75194 16.0101 6.7519L17.5 6.75195C18.8295 6.75195 19.9249 7.79297 19.9963 9.11391L20.0004 9.27891L20 11.2434C20 11.6599 19.7416 12.0323 19.354 12.1786L19.2353 12.217L15.697 13.227L15.6797 13.1823C15.0675 11.7462 13.6425 10.752 12 10.752L11.7959 10.7571C10.2407 10.8355 8.90746 11.8055 8.32004 13.1811L8.302 13.226L4.72528 12.2049C4.32474 12.0904 4.03765 11.7397 4.00344 11.3268L3.99915 11.2021L4 9.25195C4 7.92247 5.04102 6.8271 6.36196 6.75567L6.52696 6.75159L7.97436 6.75164ZM14.613 4.75195L14.5072 4.43573C14.3834 4.06451 14.0564 3.80313 13.6745 3.75867L13.5585 3.75195H10.4415C10.0111 3.75195 9.62895 4.02738 9.49284 4.43573L9.386 4.75195H14.613ZM11 14.752C11 14.1997 11.4477 13.752 12 13.752C12.5523 13.752 13 14.1997 13 14.752V16.752C13 17.3042 12.5523 17.752 12 17.752C11.4477 17.752 11 17.3042 11 16.752V14.752Z"
          fill="#17335D"/>
    <g opacity="0.5">
        <path d="M2.83571 14.7657C3.38048 14.6749 3.89572 15.0429 3.98654 15.5877L4.42935 18.2438C4.66045 19.63 5.8195 20.6615 7.20638 20.745L7.38851 20.7505H16.6118C18.0783 20.7505 19.3298 19.6903 19.571 18.2438L20.0138 15.5877C20.1046 15.0429 20.6198 14.6749 21.1646 14.7657C21.7094 14.8565 22.0774 15.3718 21.9865 15.9166L21.5437 18.5727C21.1544 20.9082 19.1846 22.6394 16.8398 22.7453L16.6118 22.7505H7.38851C4.9444 22.7505 2.8585 20.9835 2.45658 18.5727L2.01377 15.9166C1.92295 15.3718 2.29095 14.8565 2.83571 14.7657Z"
              fill="#17335D"/>
    </g>
</svg>
